<?xml version="1.0" encoding="UTF-8"?>
<svg viewBox="0 0 1111.4805 831.84882" xmlns="http://www.w3.org/2000/svg">
 <g transform="translate(407.74 -86.474)">
  <path d="m-406.59 914.46c-2.1383-6.453-1.0397-189.37 1.242-206.79 4.6172-35.261 11.93-65.525 21.489-88.936 12.326-30.187 29.17-62.506 40.141-77.018 3.2176-4.2564 12.181-16.209 19.918-26.561 13.536-18.11 27.569-31.727 53.579-51.991 5.6751-4.4214 13.801-11.329 18.057-15.35s10.834-9.4346 14.618-12.03 10.155-6.9547 14.158-9.6865 11.278-9.5644 16.165-15.183 9.3969-10.216 10.021-10.216c3.089 0 12.707 11.983 19.079 23.769 12.66 23.419 24.538 60.969 31.102 98.332 2.7922 15.892 3.4523 26.941 3.3602 56.246l-0.11469 36.47 12.445 0.50479c11.458 0.46478 12.489 0.81497 13 4.4154 0.63924 4.5047-10.753 25.917-14.568 27.381-1.399 0.53685-4.5468 0.06344-6.995-1.052-3.0116-1.3722-5.0159-1.4636-6.197-0.28247s-0.67934 2.1284 1.5514 2.9289c8.3199 2.9857 9.185 9.248 1.2775 9.248-3.4125 0-4.0253 0.64892-3.1669 3.3535 0.5854 1.8444-0.03015 5.5204-1.3679 8.1688s-2.087 5.7826-1.665 6.9649-0.0903 2.1497-1.1384 2.1497c-1.8069 0-3.2718 2.8308-6.0043 11.603-1.1552 3.7084-0.80106 3.8593 8.799 3.7501 5.5014-0.06258 14.507-0.94539 20.012-1.9618 8.6766-1.6019 10.394-1.4632 12.898 1.0414 1.8457 1.8462 2.2508 3.3325 1.122 4.117-2.4618 1.7107-7.692 19.311-7.692 25.885 0 5.4325 0.00936 5.438 9.2824 5.438h9.2824l6.1952 12.877c3.4074 7.0825 6.1952 13.239 6.1952 13.682s2.1632 4.515 4.8072 9.0494 6.1904 11.92 7.881 16.413 3.3781 8.1687 3.7499 8.1687 3.1552-1.5076 6.1853-3.3503 6.1443-2.9578 6.9205-2.4781c2.7319 1.6884 1.3652 6.9919-2.8134 10.918-3.9519 3.7126-4.0634 4.2809-1.726 8.8008 2.7067 5.2342 2.3098 5.8554-6.0262 9.432-3.4716 1.4895-2.2078 1.7321 6.871 1.3192 6.1188-0.2783 24.281-0.7926 40.361-1.1428 24.236-0.5279 31.515-1.3136 42.563-4.5939 14.037-4.1674 15.091-5.4221 11.821-14.063-0.82866-2.1898-1.9908-9.3986-2.5826-16.02-2.1167-23.683-3.2521-29.185-6.4959-31.483-2.1676-1.5352-3.1728-4.3957-3.1728-9.0286 0-3.7298-0.48576-6.7814-1.0795-6.7814s-6.2043 3.7746-12.468 8.388c-14.472 10.659-30.962 19.922-32.534 18.275-0.66632-0.69844 0.2506-2.1465 2.0376-3.2179 18.581-11.14 43.218-29.779 42.764-32.354-0.23081-1.3104 1.8956-3.2564 4.7254-4.3245 5.731-2.1632 7.8707-5.8787 5.9965-10.412-0.84434-2.0425-1.5021-2.3188-2.047-0.85986-1.439 3.8524-3.658 2.27-4.8234-3.4395-1.5366-7.5276-7.5455-33.342-9.5405-40.987-1.3887-5.3213-2.3036-6.1624-6.7027-6.1624-2.802 0-4.7854 0.50003-4.4077 1.1112s-4.4931 6.4798-10.824 13.041-15.38 16.573-20.109 22.249-9.0119 10.705-9.5169 11.178-3.852 4.4929-7.4379 8.9332c-4.9626 6.1452-8.6453 8.7677-15.419 10.98-4.8948 1.5988-9.201 3.1684-9.5693 3.488s3.8172 8.1476 9.3013 17.395c15.227 25.678 12.782 23.832 22.122 16.701 4.4322-3.3842 8.92-5.8659 9.973-5.5149s-1.4886 3.253-5.648 6.4488-8.2056 6.3547-8.9916 7.0197 0.17557 4.3546 2.1369 8.1991c5.8691 11.504 0.88797 9.8298-5.4392-1.8286-3.2151-5.9242-11.011-19.19-17.325-29.48s-11.479-19.924-11.479-21.411c0-1.8651 0.55229-2.1501 1.7826-0.91983 2.8301 2.8301 18.827-5.6401 25.94-13.734 5.3396-6.0769 5.8538-7.3568 3.6138-8.9948-2.1709-1.5874-1.7337-2.0853 2.591-2.9502 3.4048-0.68094 7.1576-3.5958 10.86-8.4348 3.1114-4.0669 10.744-12.63 16.961-19.03s11.312-12.863 11.322-14.363c0.01278-1.8733 4.0751-4.0337 12.977-6.9014 8.5996-2.7703 16.314-6.8078 22.933-12.003 5.486-4.3058 9.6394-8.1639 9.2298-8.5736-1.4834-1.4834-16.495 8.1253-19.241 12.316-2.5323 3.8648-7.5472 4.4746-5.1703 0.62867 1.3271-2.1473 0.08387-2.0068-13.104 1.4806-6.2209 1.6451-13.679 4.9137-16.574 7.2636s-13.089 10.389-22.654 17.864-17.391 14.561-17.391 15.746c0 2.5466-13.984 7.637-20.98 7.637-7.4449 0-9.1484 5.406-6.7613 21.456 2.3463 15.776 2.3992 18.098 0.41198 18.098-1.9973 0-3.6072-6.6149-5.2315-21.497-1.9845-18.182-1.1377-19.257 18.803-23.865 2.3646-0.54648 16.825-10.965 32.135-23.152 17.329-13.795 29.912-22.574 33.338-23.259 8.0684-1.6137 17.563-7.8801 15.607-10.301-0.87592-1.084-1.5976-3.9056-1.6037-6.2703s-0.80284-10.49-1.7704-18.057-1.8676-18.743-2-24.836-0.57761-11.623-0.98939-12.289-3.6548-0.53654-7.2068 0.28828c-26.895 6.2454-68.785-6.2538-88.883-26.521-9.7133-9.7949-19.893-27.833-23.932-42.406-3.106-11.208-7.0461-45.411-5.6503-49.048 2.0506-5.3437-1.8151-2.0532-10.038 8.5444-4.6984 6.0552-9.1396 10.64-9.8694 10.189-1.8968-1.1723 2.8789-8.2371 15.318-22.66 5.9581-6.9085 10.833-13.357 10.833-14.329s-5.0817-6.9257-11.293-13.229c-13.944-14.151-26.309-38.129-19.663-38.129 0.94586 0 1.7197 1.0372 1.7197 2.3049 0 6.2403 11.216 24.016 20.213 32.035 13.967 12.449 19.75 14.857 35.332 14.717 20.274-0.1827 25.158-5.3349 20.911-22.059-0.95035-3.7422-0.33786-5.7596 2.745-9.0412 3.8129-4.0587 3.8442-4.3148 0.79772-6.5424-1.9382-1.4172-2.7487-3.4177-2.0852-5.1467 0.88408-2.3039-0.07012-2.8283-5.1463-2.8283-5.9282 0-6.093 0.15314-3.3855 3.145 4.1843 4.6236 3.465 6.2548-1.3631 3.0913-2.3151-1.5169-5.4106-2.297-6.8789-1.7335-3.4924 1.3401-3.3791-1.258 0.33982-7.792 2.9796-5.235 5.5891-6.9111 5.5891-3.5897 0 0.96942 4.8579 1.7197 11.134 1.7197 10.704 0 11.24-0.20523 13.882-5.3144 3.2693-6.322 2.158-11.728-1.745-8.4891-3.2622 2.7074-6.9698 0.61742-4.3993-2.4798s12.429-4.8569 13.9-2.4764c1.5626 2.5283 8.5014-1.0312 8.5014-4.3611 0-1.2997-4.5688-6.7515-10.153-12.115-7.0644-6.7856-10.483-11.512-11.238-15.537-0.99204-5.2881-1.7368-5.8828-8.668-6.9222-7.9009-1.1848-19.62-0.38351-26.262 1.7957-6.4712 2.1232-4.3389-1.6693 3.4395-6.1172 5.8603-3.3511 9.7434-4.1808 19.593-4.1861l12.284-0.00666-3.1294-6.1341c-1.7212-3.3738-4.2723-7.0826-5.6691-8.2419s-5.0594-6.2652-8.139-11.347c-7.4581-12.306-12.898-13.889-42.583-12.39-19.249 0.97154-28.904 2.5511-42.865 7.0127-2.1282 0.68012-3.8694 0.53477-3.8694-0.323 0-4.8556 30.166-10.686 55.687-10.763 19.138-0.0575 19.234-1.0216 0.69242-6.9462-7.7412-2.4735-15.701-3.4757-28.064-3.5335-19.614-0.09172-27.72 1.0978-38.328 5.6248-6.7345 2.8739-7.3814 2.9052-6.879 0.33282 1.4334-7.3392 37.278-12.586 62.054-9.0824 14.009 1.9807 30.719 8.656 38.245 15.277 1.8917 1.6644 4.7938 3.5042 6.449 4.0884s3.0095 2.0274 3.0095 3.2071 4.0629-1.7532 9.0286-6.5176c12.744-12.228 32.847-26.854 46.255-33.654l11.431-5.7976-2.5225-4.8144c-3.9319-7.5042-7.0016-17.245-6.1804-19.612 1.0616-3.0602 14.384-2.701 18.971 0.51159 3.064 2.1461 3.6191 2.1912 2.8676 0.23294-1.4102-3.6749-8.6141-6.3337-17.161-6.3337-5.6605 0-7.6579-0.67283-7.6579-2.5796 0-1.8016 1.8153-2.5796 6.0191-2.5796 3.3105 0 6.0191-0.26784 6.0191-0.5952s-2.3491-7.0988-5.2202-15.048c-6.17-17.082-10.257-33.849-10.257-42.075 0-4.7659-0.66697-5.9124-3.4395-5.9124-5.6957 0-4.146-6.8931 4.4708-19.887 4.3506-6.5606 9.1874-13.169 10.748-14.685 4.509-4.3789 24.391-10.954 33.793-11.176 4.7293-0.11156 10.265-0.76921 12.302-1.4614 2.8905-0.9823 3.9613-0.44685 4.8772 2.439 1.1317 3.5656 1.3326 3.5933 5.6308 0.7771 4.2899-2.8108 4.5748-2.7752 7.5909 0.94951 1.7236 2.1285 3.1337 3.1278 3.1337 2.2206 0-2.0599 13.696-7.5714 15.715-6.3238 0.81534 0.50392 1.4825 2.4704 1.4825 4.3701 0 2.5718 0.80855 3.1972 3.166 2.449 2.1766-0.69082 4.4858 0.58829 7.3893 4.0932 2.3229 2.8039 6.3619 5.911 8.9757 6.9048 2.9198 1.1101 4.2784 2.5736 3.5232 3.7955-0.76559 1.2387-0.47454 1.5223 0.77177 0.75208 3.5857-2.2161 8.5452 0.72483 15.766 9.3487 5.8995 7.0463 7.3464 10.288 8.6264 19.326 0.84589 5.973 3.9145 15.86 6.8191 21.97l5.2812 11.11-0.70273-12.591c-0.38652-6.9252-1.576-13.464-2.6433-14.532-1.4409-1.4409-1.9406-1.1878-1.9406 0.983 0 1.608-0.77388 2.9236-1.7197 2.9236s-1.7282-2.5151-1.7387-5.5891-0.4986-8.4912-1.0849-12.038c-1.5414-9.3256 1.7057-8.0629 6.2137 2.4163 6.5706 15.274 8.7124 24.255 7.6069 31.9-1.2439 8.6014-1.6706 8.429 24.257 9.7965 9.4586 0.49886 24.162 2.1178 32.675 3.5976 39.825 6.9231 47.366 8.3469 60.659 11.453 26.36 6.1597 50.778 18.53 63.777 32.311 11.486 12.176 24.322 28.92 24.322 31.726 0 1.5776 2.3216 7.4676 5.1592 13.089s5.1592 11.064 5.1592 12.096 2.0428 6.1934 4.5395 11.471c5.3525 11.314 11.639 33.388 15.329 53.821 8.0254 44.447 9.5339 55.161 11.281 80.126 2.3488 33.56 1.3543 52.112-3.3763 62.99-4.0959 9.4177-14.457 21.205-26.247 29.86-7.6574 5.621-11.365 6.8802-21.793 7.4005-3.5281 0.17603-3.7188 0.59172-1.8656 4.0655 1.1354 2.1282 8.7515 11.234 16.925 20.235 11.5 12.665 16.978 20.539 24.222 34.817 6.4047 12.623 10.293 18.453 12.311 18.459 3.7126 0.00981 7.1061 6.1395 5.9167 10.688-0.49609 1.8971 0.75072 6.851 2.7707 11.009 2.8154 5.7949 4.3948 7.3303 6.7664 6.5775 1.7016-0.54007 3.0938-0.22039 3.0938 0.71039s-0.92781 2.0016-2.0618 2.3796c-1.3952 0.46507-0.80069 2.4583 1.8389 6.1652 3.1282 4.3932 4.7285 5.2702 8.0809 4.4288 2.5439-0.63848 4.1802-0.30301 4.1802 0.857 0 1.0484-0.96735 1.918-2.1497 1.9325-1.5567 0.01907-1.4959 0.44043 0.22033 1.5275 1.3035 0.82563 1.8585 2.3287 1.2334 3.3402-1.0827 1.7519 6.675 14.003 21.948 34.66 3.8462 5.2022 7.2113 9.7763 7.478 10.165s2.0374-0.69898 3.9349-2.4162c2.7352-2.4753 3.45-2.6038 3.45-0.62003 0 1.3762-0.84557 3.3478-1.879 4.3812-1.3589 1.3589-1.3589 2.8509 0 5.3901 2.6183 4.8923 2.3435 6.2635-0.74212 3.7027-3.6861-3.0592-4.9271-1.0337-2.8529 4.6563 0.96971 2.6602 1.8242 3.8694 1.8989 2.6871s1.2246-2.1497 2.5553-2.1497c2.8062 0 5.4651-8.3502 13.142-41.274 2.9775-12.769 6.4396-25.171 7.6935-27.56s3.5414-10.902 5.0832-18.917 3.4789-16.227 4.3046-18.249c1.2706-3.1109 0.99199-3.5425-1.813-2.809-1.8229 0.4767-3.3144 0.0324-3.3144-0.9873s3.1189-2.6939 6.9308-3.7203c6.9484-1.871 7.959-5.7643 1.2454-4.7976-5.4624 0.78657-5.5367-3.2475-0.11392-6.1872 2.6596-1.4418 3.7694-2.6524 2.4662-2.6903-1.7961-0.0522-2.1033-1.7335-1.2695-6.9478 0.60499-3.7834 0.66009-6.8789 0.12245-6.8789s-7.3734 2.6476-15.19 5.8835-17.253 6.4313-20.969 7.1009-8.8608 2.4312-11.433 3.9146-5.1196 2.2539-5.6613 1.7122 2.2132-6.0858 6.1222-12.32 9.2559-18.133 11.882-26.44 6.4603-19.285 8.5199-24.393l3.7448-9.2882-15.417 0.99884c-13.146 0.85168-15.573 0.59351-16.473-1.7526-0.96791-2.5223 1.5262-5.5159 4.6487-5.5797 0.70879-0.01448 8.4476-6.8005 17.197-15.08s18.9-17.414 22.557-20.299l6.6479-5.2455-2.2032-9.8448c-1.2118-5.4146-2.6556-9.5959-3.2085-9.2918-10.915 6.0042-19.905 8.813-30.241 9.4477-10.489 0.64405-12.662 0.24796-16.882-3.0777-4.2769-3.3699-4.7148-4.582-3.7401-10.351 0.89749-5.3123 0.41161-7.2269-2.5978-10.236-2.036-2.036-3.3134-4.7139-2.8387-5.951s-1.4002-4.4175-4.1664-7.0677c-4.9465-4.739-6.6134-9.3342-3.3861-9.3342 0.90386 0 4.4943 1.9347 7.9788 4.2993s7.6804 4.2993 9.3244 4.2993 3.9711 1.1835 5.1716 2.63c1.7988 2.1674 1.5927 3.3017-1.1719 6.449-2.2317 2.5407-3.4944 6.8064-3.7724 12.744-0.48327 10.324 1.8612 12.572 13.115 12.572 15.253 0 29.904-7.2749 46.347-23.013 4.9423-4.7305 9.576-8.011 10.297-7.29s-3.1854 5.6318-8.681 10.913c-9.9646 9.5757-9.9889 9.6239-8.8936 17.588 1.7395 12.648 2.2509 12.923 14.792 7.9651 6.0584-2.395 14.026-4.642 17.707-4.9931 5.3237-0.50798 7.2192-1.6597 9.2718-5.6335 2.7677-5.3581 12.185-18.048 14.727-19.844 0.87579-0.61885 0.44287-4.3396-1.0005-8.5987-1.9253-5.6811-3.3362-7.3992-5.7988-7.0613-23.283 3.1939-32.541 3.567-35.009 1.4109-2.2794-1.9914-8.9464-2.455-14.678-1.0205-0.94585 0.2367-6.0271 0.33872-11.292 0.22671-9.2526-0.19686-9.6971-0.42651-13.328-6.8868-3.9696-7.063-4.814-16.107-2.1564-23.097 1.4376-3.7812 0.17359-5.6942-12.468-18.87-13.702-14.281-14.24-14.639-20.69-13.753-6.3933 0.87801-6.5827 1.0955-5.4782 6.2902 3.0276 14.24 2.9734 15.674-0.77254 20.436-4.5378 5.7689-18.379 15.514-20.86 14.687-0.98946-0.32981 2.9067-4.254 8.6581-8.7204 9.1278-7.0884 10.457-8.8588 10.457-13.927 0-11.474-1.849-16.554-6.0254-16.554-4.1017 0-6.5778-4.44-8.4115-15.084-1.1074-6.4276 3.3918-12.432 9.3152-12.432 2.366 0 5.6295-3.3304 10.214-10.423 3.7053-5.7328 9.3346-12.504 12.51-15.048s7.6253-6.3666 9.8895-8.4958 6.6732-5.6117 9.7977-7.7388 5.6862-4.8869 5.6927-6.133c0.00751-1.4483 1.2003-1.8883 3.3065-1.2198 1.8121 0.57515 3.7862 0.25052 4.3869-0.72137 1.3358-2.1615 16.28-6.5658 26.457-7.7977 4.1156-0.49813 8.0158-1.2351 8.6672-1.6376s6.5157-0.0707 13.032 0.73742c22.511 2.7917 56.333 23.201 65.079 39.269 9.4685 17.397 5.8923 35.104-13.24 65.557-7.2002 11.46-13.091 21.27-13.091 21.798s-1.5372 2.915-3.416 5.3036-2.9806 5.0473-2.4484 5.9084-0.69837 2.9147-2.7346 4.5635c-2.8622 2.3177-3.435 4.0626-2.5244 7.6908 1.4034 5.5918 4.2672 5.9791 8.6227 1.1662 1.7554-1.9397 10.361-8.9625 19.123-15.606s17.609-14.794 19.659-18.111c3.2626-5.279 4.0399-5.7192 6.2305-3.5287 1.8589 1.8589 2.0452 3.3332 0.72418 5.7302-0.97826 1.7751-3.096 7.4838-4.706 12.686s-4.3599 12.156-6.1108 15.452-3.1834 6.6382-3.1834 7.4259c0 2.9741 28.309-13.758 36.334-21.476 7.6522-7.3588 8.5269-7.7782 10.098-4.8423 2.8868 5.3941 1.9578 9.5869-3.4733 15.675-2.8564 3.2022-8.998 12.787-13.648 21.3-9.8662 18.062-18.627 28.849-28.534 35.131l-7.093 4.4982 8.2581 14.58c4.5419 8.019 9.7947 16.902 11.673 19.739s4.6946 8.2547 6.2588 12.038 6.3401 14.231 10.613 23.216c14.168 29.793 34.918 95.246 43.615 137.58 1.8461 8.9856 3.7796 17.692 4.2968 19.347s0.11429 3.0095-0.8953 3.0095-1.8356-1.1608-1.8356-2.5796c0-6.8374-4.7402-0.99496-13.886 17.114-3.7983 7.5212-7.6858 14.615-8.6389 15.763-1.9847 2.3914 0.10141 3.2175 12.286 4.8653 6.8273 0.92324 8.3236 0.52053 11.795-3.1745 3.6456-3.8806 3.8777-5.2073 2.7956-15.982-0.96584-9.6176-0.38785-14.875 3.1846-28.969 5.8142-22.937 20.313-63.179 24.5-68.001 1.2967-1.4933 2.3576-3.6214 2.3576-4.7293s0.86413-2.0143 1.9203-2.0143c1.1559 0 1.5026 1.5403 0.87093 3.8694-0.57715 2.1282-3.4279 15.478-6.335 29.665s-7.8973 37.791-11.089 52.452-6.2118 30.912-6.7103 36.114c-2.5189 26.282-4.435 69.957-3.63 82.743 2.1143 33.582 7.1497 76.673 8.7702 75.052 0.35498-0.355-0.07932-7.177-0.96512-15.16-5.4296-48.933-5.0953-99.383 0.97932-147.79 4.9704-39.611 18.453-104.9 21.663-104.9 0.97544 0 1.4083 0.96736 0.96196 2.1497s-2.5179 10.018-4.6034 19.635c-2.8326 13.062-3.3884 18.946-2.1972 23.26 1.8041 6.534 1.7366 3.3691 2.8005 131.23 0.43287 52.022 1.0294 96.133 1.3256 98.025 0.50626 3.2332-0.75036 3.5104-20.958 4.624-34.843 1.9201-91.044 2.1384-130.7 0.5076-20.336-0.8363-48.97-1.2646-63.63-0.9518s-69.606 0.6072-122.1 0.6543-110.54 0.1175-128.98 0.1565-39.146 0.0374-46.003-0.0033c-67.808-0.403-88.267-0.3884-94.156 0.0672-9.2098 0.7127-78.499 2.3959-146.18 3.551-150.42 2.5674-187.07 3.0685-267.03 3.6512l-86.461 0.63-1.2803-3.8638zm196-4.055c0.63663-0.3894 1.6687-3.2143 2.2934-6.2775s3.4532-13.308 6.2854-22.767c7.5567-25.237 11.35-38.694 10.907-38.694-0.21509 0-5.7218 2.3577-12.237 5.2394s-13.394 5.9079-15.286 6.7249-7.6056 2.7652-12.697 4.3291c-18.521 5.6886-27.457 9.7125-29.843 13.438-3.5795 5.5893-15.071 34.744-15.071 38.236 0 2.7903 2.2433 2.9113 32.245 1.7389 17.735-0.6931 32.766-1.5788 33.403-1.9682zm80.53 0.3228c27.903-0.481 77.431-1.2896 110.06-1.7969s76.743-1.4651 98.025-2.1283c35.9-1.1187 73.455-1.2116 268.17-0.6636 40.138 0.113 73.635-0.4508 74.437-1.2528 1.3636-1.3636 5.8524-46.917 6.8937-69.958 0.25646-5.6752 1.1932-10.318 2.0818-10.318 2.2235 0 1.2374 33.167-1.7383 58.471-1.3348 11.35-2.4336 21.217-2.4419 21.927s5.0153 1.2898 11.163 1.2898c7.8127 0 11.169-0.6472 11.147-2.1497-0.04362-3.0121-7.4078-44.664-12.105-68.466l-3.9239-19.883-14.005 0.7351c-11.641 0.611-14.508 0.2323-16.983-2.2429-4.5164-4.5164-2.5414-6.823 6.3386-7.4023 5.6981-0.3717 8.0343-1.2618 8.0343-3.061 0-1.9726-1.9899-2.4298-8.9457-2.0554-10.305 0.5545-9.0763 2.5433-15.359-24.858-5.9126-25.787-5.8471-18.513 0.09311 10.336 2.912 14.143 5.295 26.012 5.2956 26.377s-11.414 0.6834-25.366 0.7078c-20.881 0.0364-76.178 1.3903-101.9 2.4948-5.8313 0.2505-5.8849 0.314-1.7197 2.0367 2.7735 1.1471 31.672 1.6911 81.427 1.5329 56.42-0.1794 76.954 0.2738 76.483 1.6877-0.46349 1.3904-29.315 2.1437-102.81 2.684-56.189 0.4132-114.15 1.4694-128.81 2.3471-32.565 1.9506-93.972 1.5307-93.972-0.6426 0-0.902 12.471-1.4332 29.236-1.2452 17.422 0.1953 30.278-0.3745 31.815-1.4102 1.7881-1.2047-7.1823-1.8069-29.236-1.9624-37.338-0.2633-37.668-0.2398-40.815 2.9065-3.2768 3.2768-5.0891 3.3785-68.303 3.8325-26.945 0.1935-36.369-0.2766-37.378-1.8645-1.0471-1.6485-1.3545-1.6206-1.3749 0.1249-0.02114 1.8053-7.0548 2.0819-35.711 1.4045-19.626-0.4639-46.712-0.8951-60.191-0.9582-15.115-0.0708-24.506-0.7738-24.506-1.8345 0-0.9459 3.289-1.7433 7.3089-1.772 5.839-0.0418 6.6986-0.4076 4.2745-1.8191-1.6689-0.9717-5.5383-1.3079-8.5987-0.747s-14.971 1.4889-26.468 2.0622l-20.903 1.0425-6.206 21.683c-3.4133 11.926-8.9054 30.583-12.205 41.46s-5.9972 20.69-5.9956 21.807c0.00363 2.4389 4.793 3.2515 16.341 2.7722 4.7293-0.1963 31.428-0.7504 59.331-1.2313zm807.26-4.6319c0.32415-0.3624-0.6357-7.3224-2.133-15.467l-2.7224-14.808-42.137 0.5027-42.137 0.5026-4.5745 14.675c-2.516 8.0711-4.1106 15.139-3.5437 15.706 1.0953 1.0953 96.246 0.0084 97.247-1.1108zm-97.743-12.697c2.0484-6.621 4.2519-14.965 4.8967-18.542 1.1319-6.28 1.0246-6.4668-3.1176-5.4272-5.5972 1.4048-9.0234-0.5707-5.6914-3.2816 2.1026-1.7107 2.1065-4.2093 0.02823-18.104-2.168-14.494-2.0906-19.537 0.2637-17.183 0.44311 0.4431 1.728 8.3109 2.8553 17.484s2.506 16.66 3.0638 16.637c1.2634-0.0511 6.2284-1.2954 40.331-10.108 15.003-3.8769 28.869-7.0488 30.812-7.0488 7.0757 0 0.55469 2.6729-17.387 7.1268-21.6 5.3622-16.003 6.0847 13.468 1.7382l19.777-2.9167-0.16948-10.283c-0.09323-5.6556-0.2867-16.38-0.42993-23.831l-0.26046-13.548-6.449 1.0136c-3.547 0.5575-9.5445 0.1657-13.328-0.8706s-9.7364-1.9938-13.229-2.1278c-8.875-0.3405-9.8556-2.2469-2.6946-5.239 5.4813-2.2902 6.6217-3.9965 11.222-16.79 7.7698-21.609 7.9883-22.499 5.3122-21.628-3.6261 1.1805-28.772 33.108-40.357 51.24-5.741 8.9856-12.303 20.914-14.581 26.506-2.5816 6.3365-4.3711 8.9953-4.7481 7.0549-1.9998-10.294 31.597-61.524 56.377-85.967 6.6866-6.5956 12.157-12.593 12.157-13.328s-2.98-1.3359-6.6223-1.3359c-11.541 0-20.821-4.5947-15.688-7.7674 0.97126-0.60027 4.788-7.1019 8.4815-14.448s8.703-15.719 11.132-18.605c2.9551-3.512 4.4165-7.3005 4.4165-11.449 0-3.4104-0.42799-6.2008-0.9511-6.2008s-3.8121 1.9586-7.3089 4.3524-10.422 5.5445-15.388 7.0015c-8.5926 2.5207-8.968 2.8726-7.7388 7.2558 2.0256 7.2235 0.95693 20.264-2.0348 24.83-2.5705 3.923-2.4575 4.5359 2.0217 10.966 7.0456 10.115 9.0437 13.987 9.0437 17.526 0 4.2374-14.933 12.335-22.747 12.335-5.5002 0-6.1071 0.54416-8.1271 7.2864-2.7639 9.2249-16.708 38.591-18.996 40.005-3.2439 2.0049-1.7195-3.1568 4.0206-13.614 6.5084-11.857 13.921-32.798 12.451-35.176-0.53714-0.86914 0.3732-2.1036 2.023-2.7432 2.8125-1.0903 2.7995-1.3102-0.20833-3.5244-2.7932-2.0562-3.8494-1.8873-8.1688 1.3061-2.7284 2.0172-4.9608 4.6557-4.9608 5.8633 0 3.1368-6.6359 6.3508-9.1385 4.4262-3.3601-2.584-12.405-1.5636-12.038 1.3582 0.17625 1.4032 3.2692 10.809 6.8733 20.901s5.9329 18.969 5.1752 19.727-1.9752 0.4108-2.7056-0.771c-0.92845-1.5023-1.9544-0.7737-3.4104 2.4217-3.2122 7.0501-4.1645 3.7033-1.1149-3.9184 2.5887-6.4697 2.5142-7.2539-1.7716-18.64-2.4607-6.5375-6.2972-15.784-8.5255-20.547-7.6529-16.359-12.32-27.585-13.606-32.727-0.70838-2.8323-2.1159-6.1472-3.1279-7.3666s-3.7208-7.6471-6.0196-14.284c-3.18-9.1809-3.7135-12.629-2.2306-14.415 1.5214-1.8332 1.1745-2.5943-1.581-3.4689-1.9415-0.61622-3.53-2.2291-3.53-3.5841s-0.58041-2.4526-1.2898-2.439-11.938 21.489-24.952 47.723c-32.093 64.693-51.592 101.39-52.47 98.759-0.49672-1.4902-1.9517-0.8727-4.5503 1.9313l-3.8201 4.1219 2.9422 17.876c1.6182 9.8316 3.4622 22.279 4.0979 27.661 1.0626 8.9965 1.5278 9.8279 5.7742 10.318 2.5402 0.2934 29.347 0.5335 59.571 0.5335h54.952l3.7244-12.038zm-130.69-18.325c-4.4818-28.557-7.4562-41.999-8.9603-40.495-0.45826 0.4583 1.0752 10.785 3.4075 22.948s5.1638 27.776 6.2921 34.695 2.416 12.216 2.8617 11.77-1.1748-13.459-3.601-28.918zm220.42-2.8901c2.1282-0.1547 3.8694-1.0175 3.8694-1.9173 0-1.7818-26.548-0.6113-35.255 1.5543-4.4183 1.0991 17.735 1.3552 31.385 0.363zm-22.055-4.6979c12.699-1.3711 23.528-2.9328 24.066-3.4704s-3.6612-0.5292-9.3305 0.0186c-23.731 2.2929-50.587 4.7124-60.988 5.4946-6.1194 0.4601-11.537 1.2795-12.038 1.8209-1.1962 1.2911 29.225-0.7252 58.291-3.8637zm7.4625-5.8191c13.832-1.1749 18.477-2.3611 16.599-4.2384-0.73488-0.7344-50.243 5.3001-54.888 6.6903-2.5635 0.7672 9.4428-0.0016 38.29-2.4519zm-709.37-37.959c-5.4521-1.5765-18.523-2.4379-27.138-1.7885-5.3834 0.4058-5.5679 0.5718-1.7472 1.5721 6.3668 1.6668 34.633 1.8786 28.885 0.2164zm69.523-6.2234c6.1109-4.2348 9.4822-7.4924 7.754-7.4924-1.9405 0-20.348 6.8943-25.445 9.5302-5.2467 2.7131-5.5002 3.1553-2.4297 4.2384 4.6236 1.631 12.057-0.6875 20.121-6.2762zm19.73 3.5874c9.1859-6.2338 9.1887-6.3616 0.12121-5.6642-8.3555 0.6426-10.894-0.8795-4.7293-2.836 1.8917-0.6004 3.4395-1.8406 3.4395-2.756 0-1.9565-6.098 0.9609-7.8147 3.7387-0.62005 1.0032-4.2617 4.0946-8.0926 6.8697l-6.9653 5.0456h8.7803c6.5822 0 10.403-1.101 15.261-4.3978zm151.03 2.7003c9.7858-0.0234 10.331-0.2465 10.566-4.3228 0.2341-4.0572-0.24784-4.2992-8.5987-4.317-4.8657-0.0105-11.749-0.4987-15.296-1.0849-6.2415-1.0317-6.449-0.902-6.449 4.0316 0 6.2563 1.4492 7.87 5.9754 6.6538 1.9158-0.5148 8.1265-0.9471 13.802-0.9607zm-277.74-3.4975 12.898-3.3343-15.478 0.7768c-17.072 0.8568-23.666 2.1939-22.236 4.5085 1.485 2.4027 10.81 1.6696 24.815-1.951zm80.828-1.6013c4.2564-1.9795 5.8041-3.2054 3.4395-2.7242s-17.455 0.982-33.535 1.1129c-30.367 0.2472-30.153 0.8467 1.7197 4.833 14.647 1.8319 18.433 1.402 28.376-3.2217zm109.2-1.8024c-4.6972-2.0185-6.0191-2.0185-6.0191 0 0 0.9459 2.1282 1.6654 4.7293 1.5989 4.1907-0.1071 4.3376-0.2892 1.2898-1.5989zm33.105 0.4557c-4.4928-0.3543-11.845-0.3543-16.338 0s-0.81687 0.6441 8.1688 0.6441 12.662-0.2899 8.1688-0.6441zm26.636 0.0478c-2.1392-0.4114-5.2347-0.3958-6.8789 0.0347s0.10604 0.767 3.8895 0.7479 5.1287-0.3713 2.9895-0.7826zm69.695-20.135c12.22-14.123 28.666-49.116 24.86-52.898-1.6465-1.636-29.238-2.1097-35.029-0.60148-4.3256 1.1266-4.4337 1.4154-2.1603 5.7729 4.1803 8.0122 2.1381 12.627-2.3837 5.386-2.1076-3.3748-3.3991-3.4712-36.02-2.6882-32.352 0.77658-33.892 0.96926-35.161 4.3983-0.72964 1.9724-2.506 4.0388-3.9475 4.5919-4.5222 1.7354-2.8717 3.8804 3.8281 4.9751 14.045 2.2948 15.493 2.8428 17.157 6.4955 2.7106 5.949 2.3256 7.2629-1.9636 6.7009-4.6568-0.6103-7.0066 4.843-3.8332 8.8957 2.2101 2.8225 38.008 5.0073 49.861 3.0431l6.6193-1.0969 6.4781-20.439c3.9384-12.426 7.6404-21.09 9.443-22.099 1.6308-0.91259 6.3758-1.1478 10.545-0.52264 12.114 1.8167 12.314 4.5809 1.7777 24.608-12.041 22.887-21.486 34.12-30.869 36.714-3.9456 1.0906-6.2499 2.3149-5.1207 2.7206s1.646 1.7982 1.1486 3.0946c-2.0682 5.3896 16.283-7.243 24.77-17.051zm-72.398-34.827c-1.6937-1.6936-1.3929-7.4522 0.38924-7.4522 1.536 0 3.6235 4.0439 3.6235 7.0196 0 1.8391-2.3526 2.0928-4.0127 0.43258zm314.98 50.446c0.36468-1.8803-0.58967-2.867-2.7731-2.867-1.831 0-6.1196-2.2176-9.5302-4.928-10.28-8.1698-16.067-9.9032-21.784-6.5258-2.6583 1.5703-6.1138 2.8551-7.679 2.8551s-2.3527 0.7976-1.7502 1.7725c1.1833 1.9146 12.666 0.5046 15.251-1.8728 0.83899-0.7715 4.3215 0.7511 7.7388 3.3837 16.618 12.802 19.415 13.917 20.527 8.1823zm-312.76-0.6058c0.43597-0.3815-1.4823-2.5077-4.2628-4.7248-4.7354-3.7759-4.9038-4.3145-2.6607-8.5059 2.1012-3.9261 2.044-4.8624-0.46644-7.6364-3.375-3.7293-3.6613-7.422-0.79758-10.286 1.6051-1.6051-3.1977-2.0637-21.613-2.0637-22.691 0-23.632 0.1395-22.612 3.3535 0.58539 1.8445-0.06852 5.5443-1.4532 8.2219-1.8075 3.4953-2.0263 5.7461-0.7759 7.9805 1.3703 2.4485 0.78809 4.1073-2.7303 7.7798-2.4596 2.5672-4.4719 5.1266-4.4719 5.6877s9.8343 1.1309 21.854 1.2664 22.181 0.573 22.58 0.9721c0.82368 0.8237 16.195-0.9822 17.41-2.0454zm522.19-3.5152c-0.57145-0.5715-0.97791 0.4443-0.90324 2.2571 0.08252 2.0035 0.49003 2.4109 1.039 1.0391 0.49678-1.2415 0.43569-2.7248-0.13576-3.2962zm-511.8 1.254c-3.3342-2.1547-5.1592-2.1547-5.1592 0 0 0.9458 1.7412 1.7079 3.8694 1.6934 3.129-0.0213 3.3758-0.3454 1.2898-1.6934zm21.09 0.5091c-2.1152-0.4082-5.9846-0.4187-8.5987-0.0234s-0.88352 0.7292 3.8458 0.7422 6.8681-0.3106 4.7529-0.7188zm182.81-0.4418 20.75-0.0673-3.1263-15.048c-10.506-50.569-19.132-93.509-20.169-100.39-1.1379-7.5614-4.8222-14.991-10.021-20.208-1.2997-1.3043-1.9622-3.4162-1.4722-4.6932s-0.25624-4.8531-1.6583-7.947c-2.4577-5.4232-2.5325-5.084-2.0818 9.4432 0.53157 17.136 0.07227 17.693-13.943 16.891-7.1123-0.40709-7.4753-0.20781-6.5247 3.5819 0.55367 2.2071 1.1435 10.431 1.3106 18.274 0.25837 12.123-0.17448 14.611-2.8872 16.595-2.7864 2.0375-3.2199 5.0268-3.4177 23.573-0.20949 19.64-2.0689 51.301-3.456 58.845-0.54719 2.9761 0.37954 3.1382 12.678 2.2169 7.2974-0.5467 22.606-1.0242 34.018-1.0612zm-273.66-11.068c-0.51461-2.0504 0.2237-5.9625 1.6407-8.6938 1.9135-3.6882 2.111-5.8354 0.76742-8.3458-1.4092-2.633-2.1216-2.874-3.2238-1.0906-0.77979 1.2617-0.62531 3.7647 0.34418 5.5762 3.4237 6.3972-4.5462 8.9072-12.177 3.8349-4.7095-3.1308-8.7396-9.1422-8.7396-13.036 0-0.9901 15.318-1.6389 38.694-1.6389 21.521 0 38.694-0.6806 38.694-1.5337 0-1.806-80.489-2.1587-87.133-0.3819-4.4009 1.177-4.2356 1.4268 6.5573 9.9086 6.0896 4.7857 12.78 9.6155 14.869 10.733 2.2248 1.1907 3.7966 3.6681 3.7966 5.9841 0 5.1098 1.679 6.7001 4.5544 4.3138 1.2771-1.06 1.8772-3.5516 1.3556-5.6295zm106.6 3.2616c1.4294-1.8917 2.6237-4.2134 2.654-5.1592 0.09113-2.8446-49.896-1.7834-51.721 1.098-4.4637 7.0452-2.4512 7.6425 25.476 7.5615 18.94-0.0549 21.247-0.3972 23.592-3.5003zm463.88-2.1497c0.15505-1.6553 0.42271-7.2659 0.59479-12.468s0.88633-17.464 1.5872-27.249l1.2743-17.791-4.0188 1.1714c-5.8419 1.7028-10.461 8.0411-14.084 19.326-1.7526 5.4587-5.4736 15.706-8.2688 22.773-4.7743 12.069-4.9 12.981-2.0739 15.048 1.6906 1.2361 7.7609 2.1997 13.858 2.1997 9.079 0 10.896-0.4911 11.132-3.0095zm11.175-4.2994c-0.47707-1.1823-0.86742-0.2149-0.86742 2.1497s0.39035 3.332 0.86742 2.1497 0.47707-3.117 0-4.2994zm-257.71-6.0047c-0.38334-4.6215-1.4229-6.6034-3.6891-7.0331-2.6207-0.4971-3.0742 0.3747-2.6764 5.1449 0.60755 7.2865 1.1452 8.3229 4.3173 8.3229 1.9312 0 2.4474-1.6219 2.0482-6.4347zm-487.22 1.2755c1.712-1.8917 2.4123-3.4149 1.5563-3.3848-1.9992 0.0703-7.5754 4.2837-7.5754 5.724 0 2.184 2.9703 1.0296 6.0191-2.3392zm746.75-17.627c-0.38149-3.074-0.69362-0.55891-0.69362 5.5891s0.31213 8.6632 0.69362 5.5892 0.38148-8.1043 0-11.178zm-171.5-38.107c0-0.4144-2.3216 0.40474-5.1592 1.8203s-5.1592 3.28-5.1592 4.1431c0 2.8468-13.095 10.363-16.067 9.2227-1.5674-0.60146-2.8498-1.8038-2.8498-2.6719s-1.9347-2.3139-4.2993-3.2129-4.2994-2.7243-4.2994-4.0562-1.5478-2.8263-3.4395-3.321c-5.9228-1.5488-3.7541-4.1919 3.4395-4.1919 6.6166 0 8.77 1.5987 5.1592 3.8303-3.5448 2.1908-1.6615 4.6576 2.7168 3.5587 3.8118-0.95669 4.2889-0.64836 3.3882 2.1895-1.5236 4.8004 3.5314 6.1253 6.6085 1.7321 1.3691-1.9546 3.325-3.0374 4.3464-2.4061 1.1449 0.7076 1.8572-0.53996 1.8572-3.253 0-2.9739 0.93624-4.4008 2.8874-4.4008 8.6724 0 13.482-3.9939 19.941-16.561l6.4912-12.628-6.3012 4.2761c-4.0423 2.7431-8.7007 4.2762-12.994 4.2762-4.8613 0-6.9562 0.8236-7.6548 3.0095-1.7516 5.4808-4.9189 11.59-6.6663 12.859-2.2493 1.633-6.1376 0.37471-20.216-6.542l-11.614-5.7062 1.0691 7.2185c0.58798 3.9702 2.0826 12.24 3.3214 18.377s1.9727 11.439 1.6308 11.78c-2.0915 2.0915-3.9862-3.135-5.9503-16.414-1.2304-8.3184-2.9117-16.672-3.7363-18.564-1.1512-2.641-1.3006-2.2418-0.64344 1.7197 0.47067 2.8376 1.7386 12.511 2.8177 21.497 2.5584 21.305 2.9155 24.468 3.0827 27.312 0.10444 1.7763 1.9151 2.138 7.1723 1.4328 10.264-1.3767 17.029 1.4342 17.106 7.1076 0.04337 3.1822 3.6826-2.5797 12.038-19.06 6.5868-12.992 11.976-23.96 11.976-24.374zm-107.14 43.618 5.1564-1.7975-2.6788-12.82c-1.4734-7.0511-3.5338-12.82-4.5788-12.82-1.045 0-3.0118-2.8625-4.3706-6.3611s-4.5873-10.27-7.1744-15.048-6.7628-13.153-9.2795-18.611-4.8874-9.6127-5.2682-9.2319 1.7215 7.9422 4.6717 16.803 7.5572 25.545 10.238 37.076c4.4144 18.99 6.1554 24.607 7.6262 24.607 0.27597 0 2.8221-0.8089 5.6582-1.7976zm186.25-12.731c0-2.7604 0.93611-3.9325 3.0095-3.7679 2.0803 0.1651 3.1776-1.2214 3.5537-4.4904 0.56724-4.9297 2.6776-6.1444 4.7761-2.749 0.87314 1.4128 1.7769 1.2239 3.1539-0.65923 1.0615-1.4517 3.442-2.9307 5.2901-3.2866 2.4229-0.46662 3.9424-3.0406 5.448-9.2293 1.1484-4.7202 2.8876-11.678 3.8649-15.461 2.4127-9.34 2.2224-15.527-0.26457-8.5987-5.3096 14.791-27.813 38.255-34.64 36.119-9.1039-2.8481-11.389-2.9582-11.389-0.54894 0 4.2053-3.6192 6.5884-7.1424 4.7028-3.6409-1.9485-3.9438-1.0676-1.3194 3.8362 1.805 3.3727 1.9556 3.3815 5.4167 0.31686 3.515-3.1123 3.5455-3.0923 2.41 1.5771-0.68525 2.8177-0.44179 4.7293 0.60237 4.7293 0.96388 0 1.7525-0.77388 1.7525-1.7197 0-3.0787 3.4378-1.8097 3.4942 1.2898 0.05209 2.8662 0.16349 2.8662 2.3393 0 2.9634-3.9038 3.8787-3.794 5.0285 0.60297 1.2032 4.6009 4.6157 2.632 4.6157-2.6631zm-468.43-2.6741c-7.1949-7.9639-8.0762-13.244-2.3498-14.076 7.7876-1.1324 13.57 0.69278 15.481 4.8866 1.3294 2.9178 2.2722 3.5037 3.2063 1.9924 0.7277-1.1774 0.5559-3.0652-0.38178-4.195-2.4163-2.9114-0.16257-3.7819 9.6596-3.7309 32.066 0.1664 64.894-0.49966 64.093-1.3004-0.86659-0.86659-83.564-0.88033-94.625-0.01572-6.9563 0.54378-7.256 1.6853-2.8267 10.766 2.2157 4.5422 3.8181 9.2258 3.5609 10.408-0.29685 1.3649 1.5166 2.1497 4.9672 2.1497h5.4347l-6.2192-6.8839zm506.46-0.31172c3.6757-2.0659 6.6832-4.426 6.6832-5.2446 0-4.0652-11.474-21.954-14.081-21.954-0.76799 0-1.3963 1.447-1.3963 3.2154s-1.5478 8.0604-3.4395 13.982-3.4395 11.44-3.4395 12.262c0 2.8006 8.9703 1.5069 15.673-2.2604zm61.684-46.631c0.96302-4.5394 1.673-10.343 1.5778-12.898-0.30402-8.153-6.4512 30.864-7.3968 46.947-0.85722 14.581-0.76578 14.283 1.5791-5.1592 1.3689-11.35 3.2769-24.351 4.2399-28.89zm-236 41.002c2.1282-0.0406 3.8694-0.868 3.8694-1.8387 0-5.5648-3.8416-31.074-4.9882-33.123-1.3614-2.4328-3.5736 14.522-3.5983 27.579-0.00672 3.547-0.78611 6.449-1.732 6.449-1.9162 0-2.0643-16.673-0.2672-30.095l1.1512-8.5987-13.551-18.917c-15.378-21.468-24.187-32.765-29.634-38.007l-3.7538-3.612-16.084 9.1639c-14.886 8.481-19.981 12.678-15.393 12.678 1.0247 0 1.832 1.3543 1.7939 3.0095-0.06605 2.8761 31.262 66.116 32.259 65.119 1.237-1.237-6.872-40.203-9.0655-43.562-2.9241-4.4778-3.0915-5.6496-0.80717-5.6496 3.8021 0 7.4523 9.6109 10.554 27.788 1.8074 10.593 3.4702 19.399 3.695 19.569s3.1698-0.03726 6.5444-0.4593l6.1357-0.76738-3.1616-19.877c-2.8394-17.851-2.9882-23.284-0.57165-20.868 0.76932 0.76933 7.255 36.774 9.0256 50.105l0.86042 6.4781 11.425-1.2451c6.2836-0.6848 13.166-1.2783 15.294-1.3189zm156.93-0.17531c0-1.4746-0.77388-2.2028-1.7197-1.6182s-1.7197 1.7911-1.7197 2.6811 0.77388 1.6182 1.7197 1.6182 1.7197-1.2065 1.7197-2.6811zm-224.15-4.6278c-0.47707-1.1823-0.86742-0.21497-0.86742 2.1497s0.39035 3.332 0.86742 2.1497 0.47707-3.117 0-4.2993zm-172.28-11.565c0.43205-0.69905-4.9958-2.3904-12.062-3.7585s-12.847-1.9827-12.847-1.3658-7.5533 1.5818-16.785 2.1443-18.712 1.8057-21.067 2.7629c-3.0907 1.2563 4.9328 1.7052 28.847 1.6142 18.221-0.06936 33.482-0.69804 33.914-1.3971zm353.1-9.1318c5.3868-2.3727 11.544-4.8358 13.682-5.4736 4.7305-1.4108 7.4834-6.5167 12.352-22.909 3.4505-11.619 3.5273-12.926 1.0502-17.892-3.3229-6.6609-3.3371-13.263-0.03799-17.625 3.8639-5.1085 3.084-9.2213-3.6812-19.414-3.4134-5.1425-6.7024-11.141-7.3089-13.329l-1.1028-3.9794-3.3034 4.4058c-1.8168 2.4232-2.4336 3.8683-1.3706 3.2113 1.9469-1.2033 15.674 14.55 16.043 18.41 0.56482 5.92-0.94083 11.169-4.5857 15.988l-4.0801 5.3936 3.553 7.3538c2.5334 5.2436 3.2618 9.1752 2.5381 13.701-1.255 7.8482-9.1321 22.267-12.889 23.593-1.5312 0.54039-7.2338 3.6827-12.672 6.9828-7.317 4.44-9.8276 6.943-9.6543 9.6253l0.23419 3.625 0.72006-3.6769c0.49583-2.5319 3.7701-5.0203 10.514-7.9909zm-384.89-2.8093c0-0.8685 0.46973-2.8032 1.0439-4.2993 0.83639-2.1796-0.22558-2.7203-5.3432-2.7203s-6.1796 0.54065-5.3432 2.7203c0.57413 1.4961 1.0439 3.4308 1.0439 4.2993s1.9347 1.5791 4.2993 1.5791 4.2993-0.71059 4.2993-1.5791zm442.59-3.1502c2.2626-8.0361 2.8845-13.947 1.5538-14.77-0.80931-0.50019-2.2418 3.2956-3.1833 8.435s-1.1506 9.3444-0.46482 9.3444 1.6283-1.3543 2.0944-3.0095zm-182.36-36.744c-4.5554-6.0506-11.765-16.195-16.021-22.543s-8.5127-11.542-9.4586-11.542-3.1815 1.1069-4.9682 2.4594c-3.0848 2.3354-2.6492 3.2203 8.6518 17.573 6.5451 8.3124 15.351 20.055 19.568 26.094l7.6679 10.981 1.4214-6.01c1.3004-5.4988 0.71678-6.9459-6.8612-17.011zm181.14-16.078c-0.89414-1.8591-1.8055-8.9447-2.0252-15.746s-0.94373-13.246-1.6089-14.322-0.33131-3.0149 0.74191-4.308c1.3466-1.6226 1.3905-2.6977 0.14174-3.4695-0.99526-0.6151-1.3359-3.0056-0.75694-5.3123 0.68327-2.7224 0.3192-4.1939-1.0376-4.1939-1.1514 0-1.6456-1.1586-1.1003-2.5796 1.1157-2.9076-3.2058-3.6355-4.9386-0.83182-1.6743 2.7091-4.2658 0.21089-3.0548-2.9448 0.7012-1.8273 0.40051-2.3885-0.86173-1.6084-1.1435 0.70675-3.045-0.941-4.6358-4.0172-1.4834-2.8685-3.1012-5.2154-3.5952-5.2154-1.3773 0-9.216 9.2592-9.2776 10.959-0.02988 0.82521 1.0966 0.54517 2.5034-0.62232 4.394-3.6467 7.1455-0.78039 15.598 16.249 7.0526 14.209 8.2093 18.005 8.2918 27.209 0.06889 7.6888-0.85526 12.299-3.2873 16.399l-3.3831 5.7031 4.7293 8.4856c2.6011 4.6671 4.8406 11 4.9766 14.074s1.138-2.5375 2.2267-12.469c1.2672-11.561 1.3945-19.273 0.35364-21.437zm-74.151 26.929c-0.52949-0.52949-1.9171-0.0011-3.0837 1.1742-1.6858 1.6984-1.4883 1.896 0.96271 0.96271 1.696-0.64582 2.6505-1.6074 2.121-2.1369zm-51.002-7.3574c7.0195-5.589 8.8233-8.0576 8.8233-12.075 0-3.7892 2.3562-7.482 9.4402-14.796 12.865-13.282 15.351-20.387 14.168-40.484-0.73532-12.494-4.5334-30.031-7.2706-33.57-0.1986-0.25679-2.2147 0.27457-4.4802 1.1808s-3.1621 1.6967-1.9925 1.7567c2.8911 0.14821 6.3484 8.9521 8.9594 22.815 1.7276 9.1726 1.7395 13.389 0.05847 20.637-3.2135 13.855-4.8176 17.402-9.5657 21.147-13.868 10.94-14.792 12.083-15.103 18.699-0.35595 7.568-4.6702 11.612-18.954 17.765l-8.7955 3.7892 7.9441 0.08015c6.7708 0.06831 9.2473-0.95748 16.767-6.9451zm61.629 2.4232c0.50759-1.3228-0.37037-3.834-1.951-5.5806-2.2771-2.5162-2.6315-5.0028-1.7068-11.974 1.1992-9.0398-0.34899-11.263-3.8923-5.5892-1.9116 3.061-1.4792 6.8736 2.1236 18.727 0.66879 2.2002 0.30441 4.9323-0.84205 6.3137-1.6605 2.0008-1.3641 2.2634 1.6623 1.4719 2.0258-0.52977 4.0986-2.0455 4.6062-3.3682zm-524.01-4.6538c0-4.8606-4.542-8.4693-9.191-7.3025-4.9542 1.2434-5.6153 3.7772-2.6712 10.239 1.797 3.9441 2.1551 4.0312 6.8789 1.6747 2.7408-1.3673 4.9832-3.4422 4.9832-4.6109zm656.36 1.9469c-0.47707-1.1823-0.86742-0.21496-0.86742 2.1497s0.39035 3.332 0.86742 2.1497 0.47707-3.117 0-4.2994zm-45.422-3.4683c5.4387-2.8488 9.8885-5.8131 9.8885-6.5873 0-2.1467-14.829-10.367-21.357-11.84-5.6254-1.2687-5.809-1.136-6.8109 4.9215-0.56631 3.4239-1.0382 9.5291-1.0486 13.567-0.0184 7.1351 0.11414 7.3104 4.7103 6.2299 2.6011-0.61147 9.1791-3.4426 14.618-6.2914zm-113.04 0.39648c2.6434-5.1118 2.6262-5.1753-0.8157-3.0258-1.9337 1.2076-3.5158 3.5573-3.5158 5.2215 0 4.3782 1.2632 3.7378 4.3315-2.1957zm-183.85-9.5479c1.531-6.1-0.89866-37.146-3.1162-39.818-4.1134-4.9563-12.476-1.3927-29.928 12.753-7.5496 6.1195-11.207 7.5434-7.3423 2.8583 2.1402-2.5944 1.9995-2.6689-1.5092-0.79937-2.1282 1.134-3.8694 2.7346-3.8694 3.5569s4.3862 3.9705 9.7471 6.996l9.7471 5.5009 3.2159-4.047c1.7687-2.2258 6.06-8.8838 9.5362-14.795 5.9403-10.102 9.0273-13.147 9.0273-8.9049 0 1.0139-2.0019 5.2594-4.4486 9.4345s-5.5943 11.665-6.9946 16.644-2.9711 10.407-3.4907 12.062c-0.82257 2.6203 0.30021 3.0095 8.6816 3.0095 8.9213 0 9.7082-0.326 10.743-4.451zm-20.974-5.3616 2.7575-8.0929-6.6092 6.8031c-5.39 5.5481-6.1068 7.0187-3.8857 7.972 4.5648 1.9592 4.8881 1.6799 7.7374-6.6822zm222.64-8.3082c1.9558-3.7484 9.5746-14.168 16.931-23.154s18.782-23.497 25.39-32.245 12.606-15.906 13.328-15.906c2.1834 0 1.4751 2.8832-1.2673 5.1592-3.1273 2.5954-3.1394 3.4167-0.10907 7.4136 2.2463 2.9628 2.8408 2.8583 12.226-2.1497 5.4254-2.8952 11.303-5.2639 13.062-5.2639s3.1974-0.4401 3.1974-0.97798-2.6162-8.8571-5.8138-18.487c-6.278-18.907-22.6-52.764-25.436-52.764-0.95825 0-3.7099 1.5478-6.1148 3.4395-2.8718 2.259-6.9766 3.4395-11.959 3.4395-6.6584 0-7.9454-0.63847-10.516-5.2174-2.1875-3.8959-3.8008-4.9737-6.369-4.2553-1.8917 0.52918-6.9865 1.4218-11.322 1.9836-7.1438 0.92574-8.2312 0.57769-11.608-3.7154-2.0493-2.6053-3.726-6.477-3.726-8.6037 0-3.946-3.7866-5.9159-11.465-5.9642-2.509-0.01581-4.2627-1.5682-5.3688-4.7528-1.6426-4.7291-1.6428-4.729-2.9928 2.1497-0.74254 3.7834-2.3895 9.3692-3.6598 12.413-2.4549 5.8817-3.0724 10.42-1.1572 8.5046 0.6339-0.6339 2.8424-0.04528 4.9078 1.308s6.5906 2.9925 10.056 3.6426c6.688 1.2547 13.878 8.3672 12.387 12.253-0.47282 1.2322 0.59892 3.0209 2.3816 3.975s4.4442 2.9376 5.9144 4.4078c2.0343 2.0343 3.4799 2.2414 6.0488 0.86647 4.1023-2.1955 6.6742 0.70458 2.6312 2.9671-2.5069 1.4029-2.4943 2.3036 0.14468 10.372 2.0525 6.2752 3.7096 8.726 5.7186 8.4578 1.5558-0.20769 3.2156 0.39626 3.6886 1.3421s-0.79986 1.9564-2.8284 2.2455c-2.6674 0.38027-3.9207 2.0462-4.5279 6.0191-0.46178 3.0213-0.0924 6.4235 0.82083 7.5604s1.1781 3.5869 0.58853 5.4444-0.20384 3.9138 0.85714 4.5695c1.1392 0.70405 1.4701 3.0519 0.80812 5.7339-2.1109 8.5528 2.0995 1.3909 9.4622-16.095 7.8533-18.651 8.1005-19.107 9.5646-17.643 0.54297 0.54297-2.1146 8.4108-5.9057 17.484s-6.6036 16.497-6.2501 16.497 3.677-5.6106 7.3853-12.468c19.471-36.005 21.494-39.184 23.606-37.072 0.37213 0.37214-4.0409 9.1558-9.8067 19.519s-16.043 28.903-22.837 41.199-14.489 26.097-17.099 30.669-5.8648 12.084-7.2338 16.694-3.2428 8.8474-4.1641 9.4168-1.6751 1.8678-1.6751 2.8854c0 2.571 5.8327-5.1006 10.108-13.295zm-517.11 10.155c8.6304-2.4216 10.001-3.3719 10.001-6.9329 0-2.2697-1.2829-4.619-2.8508-5.2206-2.3388-0.89746-22.736 2.1774-24.243 3.6544-1.1317 1.1097 3.578 11.305 5.2224 11.305 1.0277 0 6.3692-1.2628 11.87-2.8062zm618.76-15.674c-10.896-38.732-10.567-37.886-12.759-32.693-1.0954 2.5948-4.6636 7.5304-7.9294 10.968-3.974 4.1833-5.2058 6.5165-3.7245 7.055 1.2173 0.44254 4.6032 2.8156 7.5242 5.2736l5.311 4.469-4.9446 3.9567c-2.7196 2.1762-5.8663 3.9605-6.9928 3.9652s-2.4308 0.62765-2.8985 1.3843 1.6312 1.3758 4.6641 1.3758c5.7465 0 20.889 6.4549 22.944 9.7806 2.903 4.6972 2.3031-3.1001-1.1952-15.535zm-259.65-14.406c0-1.2798-10.588-17.774-12.96-20.19-0.56764-0.57812-28.313 15.236-28.313 16.137 0 0.22254 1.08 3.0142 2.4 6.2038l5.0534 12.205 2.6534 6.4058 15.583-9.5847c8.5709-5.2716 15.583-10.301 15.583-11.177zm-351.15 11.434c7.5122-1.0332 9.1052-1.8894 9.9769-5.3625 1.3605-5.4208 0.01043-8.6206-4.0896-9.6928-2.8618-0.74837-3.2631-0.05986-2.8679 4.9206 0.50852 6.4089-3.36 8.2883-4.9043 2.3826-0.85443-3.2673-1.2358-3.3009-9.2292-0.81283-4.5859 1.4274-10.528 3.0701-13.204 3.6505-3.9271 0.85156-4.6785 1.7554-3.8929 4.6822 0.53548 1.9949 0.98415 4.5527 0.99707 5.6841 0.01668 1.4623 2.662 1.1493 9.1491-1.0826 5.0191-1.7268 13.148-3.693 18.065-4.3692zm589.4 1.4773c2.3314-1.5276 4.2388-3.4424 4.2388-4.2552 0-1.5023-10.259-7.4413-11.094-6.4222-0.70604 0.86205 1.0574 13.455 1.8841 13.455 0.40273 0 2.6397-1.2498 4.9711-2.7774zm-243.4-3.3627c0-0.47293-1.5478-0.03153-3.4395 0.98088s-3.4395 2.2277-3.4395 2.7006 1.5478 0.03153 3.4395-0.98088 3.4395-2.2277 3.4395-2.7006zm23.115-1.6534c1.836-1.3887 2.6099-2.5003 1.7197-2.4702s-3.1207 1.1909-4.9567 2.5796-2.6099 2.5003-1.7197 2.4702 3.1207-1.1909 4.9567-2.5796zm-14.517-3.5058c0-0.47293-1.5478-0.03153-3.4395 0.98088s-3.4395 2.2277-3.4395 2.7006 1.5478 0.03152 3.4395-0.98089 3.4395-2.2277 3.4395-2.7006zm11.719-8.2349c-2.0494-2.9711-3.8768-5.6244-4.0609-5.8963s-2.3894 0.44189-4.9008 1.5861c-5.3069 2.418-5.0227 6.0374 0.41208 5.2491 3.9606-0.57442 5.1515 2.2492 1.5599 3.6984-1.3048 0.52652-0.98813 0.92077 0.8059 1.0032 1.9997 0.09186 2.6089 1.0392 1.8835 2.9294-0.95593 2.4911-0.57941 2.4709 3.4773-0.18718l4.5493-2.9808-3.7262-5.402zm-370.28-0.9372c3.6358-2.053 5.2966-4.4118 5.6246-7.9883 0.38699-4.22 0.15749-4.572-1.362-2.0892-1.0051 1.6422-5.4709 5.7978-9.924 9.2347-5.9259 4.5735-6.9439 5.9146-3.7972 5.0024 2.3646-0.68549 6.621-2.5573 9.4586-4.1595zm299.88-7.9733c1.096-1.096-20.369 0.86505-22.466 2.0525-0.65291 0.36969-0.41313 2.8924 0.53283 5.6059l1.7199 4.9338 9.5785-5.7679c5.2682-3.1723 10.054-6.2433 10.635-6.8244zm221.14-4.3781c2.7217-8.3091 3.5356-13.06 2.3617-13.785-1.2319-0.76135-1.1987-2.214 0.10613-4.6521 2.7898-5.2128 2.3285-7.0015-1.5446-5.9886-3.2701 0.85516-3.3134 0.65403-0.86758-4.0304 2.4231-4.6408 2.3668-4.9635-0.95785-5.4932-2.439-0.38856-3.034-1.1869-1.9225-2.5796 0.8853-1.1093 2.1097-3.6518 2.7209-5.65 1.005-3.2857 0.5168-3.586-5.105-3.1399-3.4189 0.27127-6.6865 0.96353-7.2614 1.5384s0.35517 7.7824 2.0666 16.017 3.5247 20.996 4.0294 28.359 1.2109 13.094 1.5695 12.735 2.5206-6.3572 4.8047-13.33zm72.204 6.8206c8.6858-10.323 10.041-14.592 7.625-24.019-2.5757-10.05-4.7136-10.531-18.43-4.1452-8.9816 4.1812-11.28 8.5885-4.483 8.5969 4.4298 0.00549 7.5838 6.9493 7.6142 16.763 0.01395 4.4928 0.73045 8.1687 1.5922 8.1687s3.5985-2.4144 6.0815-5.3654zm-233.47-0.6449 3.6703-2.5708-3.4956-7.3177c-1.9226-4.0247-3.7642-7.6153-4.0924-7.9791-0.72437-0.80286-11.025 3.3391-11.025 4.4332 0 1.7267 9.0096 16.005 10.099 16.005 0.64552 0 2.8253-1.1568 4.844-2.5708zm-368.16-6.1333c5.0609-2.8956 9.6519-5.9932 10.202-6.8836 1.8185-2.9424 7.4228 1.6598 7.9864 6.5584 0.50983 4.431 1.3594 3.7655 13.442-10.53 7.0939-8.3931 14.968-17.933 17.499-21.2s12.591-14.432 22.357-24.81 17.986-19.521 18.267-20.318-4.362-3.1053-10.318-5.1302l-10.83-3.6818-5.1592 5.7082c-19.283 21.335-36.31 41.574-42.971 51.075-9.4227 13.442-25.596 30.702-30.696 32.758-2.0469 0.82536-2.655 1.5497-1.3514 1.6096s6.511-2.2601 11.572-5.1556zm325.9-1.3779c2.2557-1.7617 7.441-4.8988 11.523-6.9713 7.5643-3.8408 8.3828-6.2172 3.2555-9.4514-2.3478-1.4809-4.6201-0.0922-12.366 7.5572-5.2192 5.1543-9.4894 9.9784-9.4894 10.72 0 2.246 2.7488 1.5257 7.077-1.8546zm-10.516 0.7838c0-0.38475-2.2893-5.8019-5.0873-12.038-4.6719-10.413-5.5193-11.339-10.379-11.339-4.8051 0-5.1178 0.32479-3.4012 3.5323 1.8151 3.3916 2.7744 8.4 3.1937 16.675 0.17284 3.4104 1.114 3.8694 7.9349 3.8694 4.2564 0 7.7388-0.3148 7.7388-0.69956zm12.789-14.034 9.574-9.5739-4.9798-7.1935c-9.1308-13.19-11.674-14.632-32.376-18.36-10.493-1.8895-20.312-3.9088-21.82-4.4874-1.6298-0.62542-2.7415-0.15846-2.7415 1.1515 0 2.9327-8.2605-4.8571-11.258-10.616-1.4784-2.8408-5.6682-5.8393-11.445-8.1907-5.012-2.0401-11.434-4.9124-14.272-6.3828l-5.1592-2.6735 4.2994 4.2696c2.3646 2.3483 7.7453 6.1736 11.957 8.5008 7.4722 4.1287 21.303 21.856 17.053 21.856-1.2542 0-1.1281 0.94808 0.36555 2.7478 1.5737 1.8962 3.9899 2.4704 7.7963 1.8527 4.77-0.77407 5.659-0.32453 6.5749 3.3246 1.8228 7.2624 17.621 14.324 20.744 9.2722 1.6465-2.6641 4.2992-2.035 5.4388 1.2898 1.7835 5.2033 9.6246 22.787 10.161 22.787 0.28208 0 4.8211-4.3083 10.087-9.574zm210.44 3.5094c-0.52949-0.52949-1.4911 0.42496-2.1369 2.121-0.93326 2.451-0.73573 2.6485 0.96271 0.96271 1.1753-1.1666 1.7037-2.5542 1.1742-3.0837zm-178.66-3.6269c2.36-2.0648-3.2375-0.14728-5.977 2.0476-3.1476 2.5218-3.0928 2.5576 0.96111 0.62692 2.3646-1.1262 4.6218-2.3297 5.0159-2.6745zm-103.04-5.9581c0-3.7729-1.7139-7.0451-5.8635-11.195-5.4019-5.4019-5.7107-6.2683-3.9223-11.006 2.5161-6.6659 5.2359-6.6345 4.255 0.04905-0.95755 6.5241 1.9648 9.1143 8.3759 7.4236 2.6916-0.70979 6.0546-1.0978 7.4734-0.86221 2.293 0.38072 2.293 0.23218 0-1.3368-1.4188-0.97081-4.798-1.777-7.5095-1.7914-4.2687-0.02281-4.7908-0.54528-3.8929-3.8957 0.57034-2.1282 1.0476-4.4498 1.0605-5.1592 0.06043-3.3193 3.4693-0.81772 3.5152 2.5796 0.04609 3.4106 0.25658 3.5189 1.7752 0.9135 1.2994-2.2293 0.66953-4.6245-2.5622-9.7439-2.3568-3.7334-5.2838-7.3641-6.5044-8.0682s-1.6107-0.61186-0.86671 0.20491c2.1957 2.4106-24.555 9.5612-31.448 8.4061-4.9729-0.83335-5.6324-0.61366-3.7943 1.264 2.4764 2.5297 13.568 2.7866 27.441 0.63554 6.4276-0.99662 9.0286-0.83546 9.0286 0.55938 0 1.0776-1.8794 1.9593-4.1765 1.9593-5.0329 0-8.26 2.9765-11.372 10.489-1.9969 4.8209-1.974 5.7365 0.16063 6.4233 1.3692 0.44054 5.9719 4.4452 10.228 8.8991s7.9323 8.2074 8.1688 8.3409 0.42994-2.1563 0.42994-5.0884zm98.536-3.3315c0.75412-0.62177-2.9246-9.6761-8.1748-20.121-7.053-14.031-12.46-22.071-20.706-30.788-6.1379-6.4887-10.683-10.25-10.1-8.3582s3.0923 5.2619 5.5768 7.4893l4.5173 4.0498-4.2507-0.97903c-4.1167-0.94816-4.0896-0.84736 0.85987 3.1972 3.889 3.178 4.3985 4.191 2.1312 4.2381-3.9499 0.082-19.544-15.807-33.463-34.097-3.3494-4.4011-2.6379-1.2072 2.1392 9.6036 3.1626 7.1569 8.0266 13.424 17.384 22.399 9.1744 8.7998 12.677 13.283 11.92 15.257-0.70531 1.838 1.3047 5.3738 5.871 10.328 3.8189 4.143 7.8498 9.6596 8.9575 12.259 3.7649 8.835 6.3044 10.747 11.403 8.5868 2.5103-1.0639 5.1812-2.443 5.9353-3.0648zm141.93-22.122c0.82145-5.6024-0.87503-8.8723-3.9842-7.6792-2.0717 0.79499-2.2374 1.5754-0.72199 3.4013 1.0816 1.3033 1.5492 3.9657 1.0391 5.9164-0.59002 2.2563-0.19457 3.3057 1.0868 2.884 1.1079-0.36457 2.269-2.3997 2.5803-4.5226zm-189.39-19.861c-11.462-10.634-13.999-14.308-20.216-29.27-3.3452-8.0504-3.379-8.674-0.5823-10.719 2.5141-1.8384 3.3662-1.5824 5.5565 1.6687 1.4229 2.112 5.7428 7.43 9.5999 11.818s8.3818 9.8049 10.055 12.038c2.9535 3.9422 2.9646 3.8601 0.38011-2.8185-1.4641-3.7834-4.1873-8.9758-6.0516-11.539s-3.3896-5.7551-3.3896-7.0939-4.1112-11.237-9.1361-21.996-11.307-24.726-13.96-31.039c-3.6728-8.7379-5.4939-11.264-7.6314-10.586-2.2549 0.71529-2.3362 0.55503-0.41284-0.81433 1.9845-1.4129 1.5151-3.5845-2.7407-12.679l-5.1354-10.974-16.176 1.1566c-8.897 0.63612-19.465 0.80064-23.485 0.36562s-7.3089-0.32751-7.3089 0.23892 4.2365 11.129 9.4144 23.473 10.689 27.602 12.248 33.908 3.8918 13.399 5.1852 15.764 4.955 10.877 8.1368 18.917c6.7254 16.994 18.164 36.458 21.816 37.12 2.2047 0.39968 8.5123 1.619 37.785 7.3042 9.7719 1.8978 8.4986-2.6928-3.9502-14.243zm220.64 14.532c1.8953-1.2248 1.9786-1.6741 0.31404-1.6934-1.4774-0.01717-1.887-1.219-1.1774-3.455 0.87134-2.7453 0.49221-3.1999-1.9024-2.281-2.298 0.88183-2.7348 0.48106-1.8862-1.7306 0.61078-1.5917 0.27767-2.8782-0.7453-2.8782s-1.3974-1.1787-0.8446-2.6194c0.81173-2.1154 0.37085-2.2799-2.2912-0.85523-3.0065 1.609-3.0796 2.1797-0.83177 6.4888 1.3556 2.5985 2.4694 6.0789 2.4752 7.7342 0.01168 3.3191 2.9098 3.8617 6.8895 1.2898zm-38.688-5.1685c0.58142-0.94076 0.41005-1.7105-0.38082-1.7105s-3.9798-2.3216-7.0866-5.1592c-5.7281-5.2318-8.8758-6.4849-8.8758-3.5333 0 0.89424 2.1282 2.6585 4.7293 3.9206 3.417 1.658 4.7134 3.5542 4.6723 6.8337-0.0474 3.774 0.44366 4.271 2.9138 2.9491 1.6339-0.87445 3.4464-2.3596 4.0279-3.3004zm28.8-16.818c-2.1282-0.33511-3.8694-1.375-3.8694-2.3109s-0.77982-1.2197-1.7329-0.63061-2.8381-0.03412-4.1888-1.3849c-1.9028-1.9028-1.9967-2.9525-0.41672-4.6613 1.6012-1.7318 1.5192-1.9088-0.38146-0.82434-1.841 1.0504-2.1964 0.5239-1.4845-2.1986 0.71448-2.7322 0.30078-3.3359-1.7474-2.55-1.977 0.75863-2.3927 0.27196-1.5791-1.8484 0.60745-1.583 0.33057-2.8782-0.61529-2.8782s-2.1652 1.1608-2.7096 2.5796-2.0679 2.5796-3.3855 2.5796c-2.9421 0-3.0843-2.0629-0.33193-4.8153 1.4865-1.4865 1.5149-2.0637 0.1015-2.0637-1.0792 0-2.4405 0.77388-3.025 1.7197-1.6344 2.6446-4.7894 2.038-3.732-0.71755 0.51439-1.3405-0.28746-2.9065-1.7819-3.48-3.5967-1.3802-4.2205-0.53893-4.5374 6.1192-0.23604 4.9578 0.39571 5.8033 5.444 7.2864 7.3386 2.1559 15.786 10.044 15.786 14.741 0 2.2736-1.5596 4.2449-4.1323 5.223-2.2728 0.8641-4.592 2.3149-5.1539 3.2241s5.3605-1.5313 13.161-5.4233c10.786-5.3814 13.256-7.2222 10.313-7.6856zm-503.46-16.49c3.0922-2.2611 3.0512-2.4174-0.96111-3.6706-9.2376-2.8852-19.166-11.971-24.391-22.321-6.394-12.666-7.8203-26.589-4.2748-41.726 1.3846-5.9116 2.146-10.748 1.692-10.748s-3.7242 1.6292-7.2672 3.6204c-4.7813 2.6872-7.3905 5.9096-10.123 12.501-10.079 24.316 3.3512 54.611 27.336 61.665 11.904 3.5008 14.02 3.5807 17.988 0.67923zm12-13.523c4.6504-6.9054 6.0648-10.766 6.0648-16.552 0-7.3859-0.10486-7.5258-4.9181-6.5632-2.7049 0.54098-8.9982 1.5249-13.985 2.1864-7.3607 0.97643-8.9169 0.75087-8.2695-1.1986 0.50621-1.5242 4.7284-2.8406 11.558-3.6037 5.9183-0.66127 14.46-2.4309 18.981-3.9326 13.249-4.4005 37.552-24.196 25.671-20.909-11.956 3.3074-12.296 3.3355-11.502 0.95357 0.43251-1.2975 3.8224-3.057 7.5331-3.91s6.9855-1.7517 7.2774-1.997-0.59314-3.1358-1.9667-6.4232l-2.4974-5.977-9.1186 1.4415c-5.0153 0.7928-9.4314 1.1287-9.8138 0.74638-1.9075-1.9076 2.2287-4.3634 7.349-4.3634 8.5988 0 11.22-1.5533 11.194-6.633-0.05605-10.848-1.1447-11.88-13.888-13.159-7.2351-0.72659-11.457-1.8656-10.808-2.9159 0.65785-1.0644 5.2591-1.2744 12.032-0.54905 6.0318 0.64595 10.978 0.53245 10.99-0.25223s0.48651-3.1541 1.0524-5.2654c0.82608-3.082 0.05861-4.219-3.8929-5.7676-2.707-1.0608-8.3101-2.18-12.451-2.4869-14.514-1.0758-12.954-7.4316 2.8002-11.407 4.0199-1.0144 7.3089-2.0204 7.3089-2.2358s-1.2175-2.832-2.7056-5.8149c-2.7037-5.4198-5.4802-6.7079-8.5587-3.9709-0.89856 0.7989-6.5161 3.232-12.483 5.4068-13.314 4.8524-18.541 11.051-21.131 25.062-2.4476 13.241-0.70549 26.115 5.756 42.535 5.4221 13.779 9.9402 18.782 19.02 21.061 2.5434 0.63834 4.6244 1.8506 4.6244 2.694 0 3.2244-8.3692 1.3257-14.85-3.3689-5.4744-3.9656-7.8236-7.6008-12.296-19.027-3.0409-7.7687-5.5289-15.588-5.5289-17.376 0-2.9817-0.32893-2.9224-3.9671 0.71581-2.1819 2.1819-4.9174 4.2839-6.079 4.6711-5.6956 1.8986-10.547 30.279-7.2553 42.445 2.7455 10.149 10.85 22.419 17.701 26.8 9.3672 5.9896 12.432 7.7394 13.743 7.8459 0.68427 0.05564 3.9733-3.9514 7.3089-8.9045zm-4.0152-60.398c-5.4394-5.612-5.4536-5.6738-2.941-12.795 2.2674-6.4265 2.2461-7.3121-0.20943-8.6863-1.8254-1.0215-2.4486-3.0243-1.875-6.025 0.47258-2.4721-0.18884-8.5352-1.4698-13.474-1.494-5.7593-1.7349-9.573-0.67208-10.636 1.8297-1.8297 1.9551-1.5324 5.1348 12.18 1.1431 4.9296 1.55 9.8179 0.90417 10.863s0.24541 2.9379 1.9804 4.2065c2.7836 2.0354 2.905 2.997 1.0321 8.1764-2.9796 8.24-2.7151 9.978 2.3178 15.231 2.4422 2.5491 3.7256 5.0764 2.8521 5.6163s-4.0479-1.5561-7.0541-4.6577zm81.233 48.083c11.469-2.2674 26.27-5.0748 32.891-6.2387s17.842-3.5531 24.936-5.3095 15.704-3.2054 19.134-3.2199l6.2361-0.0264 0.81507-9.8286c0.44828-5.4057 0.45384-11.21 0.01236-12.898-0.89485-3.4219-6.6164-4.2018-7.6686-1.0452-1.1998 3.5994-4.7711-0.36171-4.7711-5.2919 0-2.6314-1.0854-8.3908-2.4119-12.799-1.5069-5.007-1.7866-8.4008-0.74545-9.0442 2.4874-1.5373 3.0479-0.39932 5.2576 10.675 1.1124 5.575 2.1434 10.346 2.2911 10.603s2.1221-0.27457 4.3876-1.1808c2.9891-1.1957 3.2935-1.6776 1.1095-1.7567-1.6552-0.05997-3.0095-0.50647-3.0095-0.99222 0-0.71607 2.5159-5.6502 4.747-9.3097 0.24625-0.40388 1.4665 0.65897 2.7117 2.3619 2.1709 2.9689 2.5932 2.9506 10.268-0.44428 4.6024-2.0359 8.4296-2.8517 9.0055-1.9198 0.5509 0.89138-0.20403 2.0833-1.6776 2.6488-4.254 1.6324 1.7334 10.41 7.9488 11.653 2.714 0.5428 6.846 3.0493 9.1821 5.57s4.2474 4.1467 4.2474 3.6133c0-1.7154-15.859-36.448-17.415-38.141-3.0424-3.3093-1.301-4.3853 7.0967-4.3853 7.97 0 8.5987-0.30692 8.5987-4.1978 0-2.3088 0.77388-4.6761 1.7197-5.2607 1.0033-0.6201 1.7197 1.1286 1.7197 4.1978v5.2607h12.038c6.621 0 12.038-0.66951 12.038-1.4878 0-6.4387-34.784-39.477-36.415-34.586-0.3266 0.97981-6.0679-0.93264-12.891-4.2941-10.734-5.2883-17.284-7.2173-26.034-7.6685-1.2381-0.06383-1.7729-0.88994-1.1883-1.8358 3.4074-5.5132-8.3108 3.2776-14.334 10.753-2.121 2.6324-0.73125 2.7709 18.235 1.8173 11.292-0.56775 22.611-0.51021 25.153 0.12787 9.3592 2.349 2.1992 4.2505-16.609 4.4108-24.427 0.20817-29.371 1.4071-46.255 11.217-19.3 11.214-20.917 8.7156-2.3008-3.5561 12.217-8.0535 15.82-11.372 17.119-15.766 0.90498-3.0609 2.4527-5.5897 3.4395-5.6196s4.0084-2.0016 6.7148-4.3816c4.7844-4.2073 4.8866-4.6466 3.687-15.849-2.9417-27.469-3.4373-29.588-6.92-29.588-5.3172 0-47.075 11.911-78.764 22.466-14.016 4.6688-26.592 8.4888-27.946 8.4888-2.9956 0-3.1716 2.0411-0.41382 4.7989 1.126 1.126 2.5709 8.4392 3.2107 16.252 0.74706 9.1212 2.7211 17.897 5.5164 24.523 3.8259 9.069 4.5678 14.275 6.1271 42.993 1.5716 28.946 5.7443 57.611 8.3864 57.611 0.51473 0 10.32-1.8552 21.789-4.1226zm52.668-50.824c0-10.18 9.4119-33.327 16.387-40.303 2.6895-2.6895 33.392-13.094 38.639-13.094 1.8948 0 3.4451 0.77388 3.4451 1.7197s-1.2624 1.7197-2.8054 1.7197c-4.4871 0-33.898 10.451-36.926 13.122-4.4018 3.8821-11.47 18.085-12.727 25.572-1.7141 10.214-2.6318 12.898-4.4095 12.898-0.88211 0-1.6038-0.73578-1.6038-1.6351zm23.803-19.475c2.5953-3.192 29.35-14.016 30.875-12.491 1.6276 1.6276-1.6214 3.516-14.265 8.2905-20.473 7.7313-19.224 7.4156-16.61 4.2006zm-51.319-6.2145c0-1.7612 24.949-13.949 28.554-13.949 3.8161 0 2.7838 3.0902-1.4683 4.3955-2.1282 0.6533-8.6739 3.414-14.546 6.135-11.725 5.4329-12.54 5.655-12.54 3.4183zm174.32 65.779c1.9197-14.006 1.1895-24.863-2.5071-37.276-4.3114-14.477-15.782-27.961-25.349-29.8l-5.7329-1.1017 4.4306 4.7808c7.7019 8.3105 13.308 22.405 13.231 33.264-0.05426 7.6444 1.3045 12.779 6.3262 23.907 3.5174 7.7946 6.8705 14.179 7.4513 14.188s1.5482-3.5746 2.1497-7.963zm254.42 3.996 4.3622-2.2632-4.6896-8.4852c-7.6485-13.839-9.4817-16.224-12.47-16.224-1.563 0-3.2558 1.0789-3.7618 2.3975-0.73855 1.9247-2.502 2.0601-8.9412 0.68678-6.4772-1.3814-9.5252-1.1364-15.834 1.2731-6.5703 2.5092-7.3361 3.2509-4.8139 4.6624 1.6496 0.92316 5.9144 1.2123 9.4773 0.6426 5.0514-0.80776 7.499-0.23277 11.114 2.611 3.2966 2.5931 4.1038 4.1792 2.7938 5.4892-3.4305 3.4305-1.8675 4.5207 5.9912 4.1786 7.5292-0.32768 12.173 2.4202 10.009 5.9224-1.2763 2.0651 1.8626 1.6515 6.7637-0.89123zm-39.224-30.412c0.58457-0.94585-0.14364-1.7197-1.6182-1.7197s-2.6811 0.77389-2.6811 1.7197 0.7282 1.7197 1.6182 1.7197 2.0965-0.77388 2.6811-1.7197zm-239.65-21.138c-9.6396-19.92-12.721-20.287-4.1162-0.48997 5.5542 12.778 8.3443 17.568 8.7244 14.977 0.30735-2.0952-1.7663-8.6142-4.6082-14.487zm-209.23-4.2284c-0.93863-15.864-4.7301-36.544-6.6999-36.544-1.994 0 1.0404 41.158 3.5115 47.628 1.555 4.0718 3.1547 7.4034 3.5548 7.4034s0.23523-8.3192-0.36639-18.487zm195.22-17.257c0-1.3535-9.0228-7.2497-11.094-7.2497-0.6076 0 0.28569 1.9104 1.9851 4.2453 2.8857 3.9648 9.1089 6.0175 9.1089 3.0044zm-206.37-20.148c0-4.8598-3.4441-5.5727-11.496-2.3795l-4.8412 1.9198 6.8789 2.1992c9.5402 3.05 9.4586 3.065 9.4586-1.7395zm437.34 0.78888c6.8022-0.9849 14.087-2.5062 16.189-3.3807 6.1448-2.5567 29.227-40.425 35.633-58.459 1.5119-4.2564 3.2299-14.049 3.8176-21.761 1.0519-13.802 0.99057-14.099-3.9044-18.917-2.7352-2.6922-5.7469-6.3736-6.6928-8.1809s-3.2041-3.4991-5.0183-3.7596-5.2966-1.9302-7.7388-3.7104-7.7293-5.0676-11.749-7.3054-7.3089-4.6519-7.3089-5.3648-1.3543-1.2861-3.0095-1.2738-6.0576-0.76108-9.7831-1.7187-8.8553-1.3248-11.4-0.81593-5.1562 0.06743-5.8042-0.98097c-0.81791-1.3234-1.9708-1.1135-3.7709 0.68662-1.426 1.426-5.0526 2.6982-8.0591 2.8271-14.747 0.63203-19.918 1.778-29.658 6.5733-5.8054 2.858-12.639 6.8351-15.185 8.838-4.3694 3.437-4.4802 3.8696-1.9715 7.6984 6.1249 9.3478 11.25 19.657 11.216 22.56-0.03529 2.987-11.575 12.567-15.138 12.567-1.7486 0-10.653-13.527-12.96-19.688-1.098-2.9324-1.8878-2.396-6.3296 4.2993-5.0983 7.685-6.5731 13.669-3.3688 13.669 1.5277 0 8.8487 7.3034 34.478 34.395 4.0266 4.2564 6.0467 6.1355 4.4892 4.1759-4.2333-5.3262-14.906-27.907-14.796-31.307 0.09166-2.8557 7.4052-9.7689 12.2-11.532 4.6079-1.6947 7.798 2.8123 25.896 36.586 4.8461 9.0435 12.582 22.137 17.19 29.096s7.9171 13.4 7.3525 14.314c-1.2881 2.0842-0.0317 2.0735 15.184-0.12968zm-43.546-12.26c-11.75-9.8178-17.175-10.2-17.175-1.2092 0 2.992 0.71962 4.7001 1.7197 4.082 0.97684-0.60372 1.8059 1.024 1.9192 3.7679 0.10972 2.6569 0.53479 3.5732 0.94457 2.0362 0.76696-2.8767 9.1744-4.0586 9.1744-1.2898 0 0.82763 1.5021 1.5048 3.338 1.5048s3.8395 0.81146 4.4524 1.8032c0.76472 1.2373 1.86 1.1845 3.49-0.16826 1.931-1.6026 0.45937-3.5726-7.8633-10.527zm-394.59-12.639c-0.62115-4.9716-2.2642-10.48-3.6512-12.241-2.2659-2.877-2.4376-2.0333-1.6918 8.3147 0.83808 11.628 4.6187 21.819 5.8727 15.83 0.32984-1.5754 0.0915-6.9321-0.52967-11.904zm-25.866 4.3339c-0.58458-0.94586-1.4041-1.7197-1.8212-1.7197s-0.75837 0.77388-0.75837 1.7197 0.81956 1.7197 1.8212 1.7197 1.3429-0.77388 0.75837-1.7197zm8.1284-0.9628c1.9832-1.9832-35.047-33.432-39.365-33.432-1.2638 0-2.2978 0.48285-2.2978 1.073 0 1.9445 37.113 33.018 39.697 33.237 0.55176 0.04671 1.4364-0.34833 1.966-0.87788zm6.4468-6.888c-4.1336-10.872-1.5782-16.127 8.4102-17.294 6.415-0.74973 6.5608-2.073 1.2711-11.538-9.9045-17.722-30.276-71.162-30.276-79.424 0-1.294-0.62074-2.7363-1.3794-3.2052-3.1593-1.9526 7.1273 60.861 12.357 75.458 5.0769 14.17 5.1364 18.588 0.32028 23.784-2.4306 2.6227-4.3995 5.3091-4.3753 5.9697 0.05018 1.3684 12.201 10.499 14.101 10.596 0.68598 0.03501 0.49251-1.9214-0.42993-4.3476zm391.28 2.6916c-0.58457-0.94586-1.4041-1.7197-1.8212-1.7197s-0.75837 0.77388-0.75837 1.7197 0.81956 1.7197 1.8212 1.7197 1.343-0.77389 0.75837-1.7197zm-247.52-6.056c-1.8227-1.3789-3.735-2.0861-4.2495-1.5715-1.0795 1.0795 3.2883 4.1492 5.8437 4.107 0.94585-0.0156 0.22847-1.1566-1.5942-2.5355zm-6.1446-2.3587c0-0.84466-1.1608-1.9812-2.5796-2.5256-2.6214-1.0059-3.522 0.82599-1.4331 2.9149 1.6435 1.6436 4.0127 1.4137 4.0127-0.38925zm-92.806-22.974c9.0184-3.2369 27.353-8.8164 40.743-12.399 23.812-6.3709 24.295-6.5939 22.046-10.169-2.1157-3.3623-12.191-44.44-13.339-54.387-0.79074-6.8476-3.9284-3.2975-4.0107 4.5379-0.05006 4.7645-1.6136 9.4428-4.7293 14.151-2.56 3.8684-4.6545 7.8091-4.6545 8.7573 0 5.3005-16.493 3.0981-25.84-3.4506-4.3206-3.0272-4.3715-3.0088-9.8885 3.5625-3.05 3.6329-5.5455 8.1653-5.5455 10.072 0 4.2868-7.7609 12.963-10.23 11.437-0.99435-0.61455-1.8079-2.093-1.8079-3.2853s-2.0167-3.9215-4.4816-6.0647l-4.4816-3.8967-4.959 4.751c-2.7274 2.6131-5.1712 4.4205-5.4305 4.0165s-3.0539-11.182-6.2103-23.951c-9.255-37.441-8.6489-35.951-16.186-39.797-3.7052-1.8902-6.99-3.1834-7.2996-2.8738-1.0004 1.0004 9.325 36.085 16.607 56.428 7.0442 19.679 11.897 30.477 19.838 44.14 4.7578 8.1864 2.284 8.3174 29.861-1.5804zm297.22-7.4494c0.94343 0.58308 2.234 0.22089 2.868-0.80489s2.2352-1.4496 3.5583-0.9419c4.6262 1.7753 2.3491-2.1642-4.2908-7.4231-7.0508-5.5844-9.6202-6.4002-11.349-3.6037-0.62076 1.0044 0.13742 1.2441 1.8529 0.58583 2.0358-0.78121 2.6459-0.38983 2.0414 1.3095-0.47418 1.333-0.16561 3.778 0.68571 5.4332 0.96447 1.8752 0.84113 4.4679-0.32725 6.879-1.7512 3.6136-1.7059 3.6591 0.68494 0.68765 1.408-1.75 3.332-2.7047 4.2754-2.1216zm-325.12-36.167c0.29717-0.17071-2.2627-5.8763-5.6885-12.679-7.3506-14.596-7.4749-20.04-0.44094-19.304 4.0605 0.42502 4.7293-0.12978 4.7293-3.9234 0-5.7025 3.7195-7.0528 9.3196-3.3835 6.3594 4.1668 5.4929 1.7779-1.0432-2.8762-3.2779-2.3341-8.2901-4.0028-12.468-4.151-3.8426-0.13631-8.6527-0.78253-10.689-1.4361-4.1481-1.3312-4.1465-1.3172 2.9115 25.594 1.7365 6.621 4.0244 15.384 5.0842 19.474 1.7121 6.6072 2.2511 7.1886 4.8359 5.2159 1.6-1.2211 3.1522-2.3598 3.4493-2.5305zm33.709-44.946c5.5464-20.42 5.5502-19.047-0.03871-13.954-5.6324 5.1323-12.969 9.0437-20.24 10.791l-4.9469 1.1886 3.8369 4.0842c3.8306 4.0775 13.059 9.3856 16.446 9.4597 0.98451 0.02153 3.2089-5.1845 4.943-11.569zm41.147-1.7652c-1.1512-4.5866-8.9988-19.037-16.204-29.836-2.288-3.4296-4.9881-7.6381-6.0002-9.3522-1.7291-2.9286-2.2058-2.8377-7.9011 1.5063-3.3336 2.5426-7.7292 4.623-9.7681 4.623s-3.7071 0.59038-3.7071 1.3119-1.7232 2.0759-3.8294 3.0095-5.9876 4.9284-8.6255 8.8772c-3.7107 5.5546-6.7392 7.825-13.381 10.031-10.595 3.5191-9.6387 6.8161 1.4929 5.1468 13.41-2.011 24.835-9.2827 31.748-20.208 4.0274-6.3644 6.4716-5.9712 5.3452 0.85987-1.1526 6.9901-3.7629 18.732-5.1121 22.995-0.56235 1.777 0.93124 0.18654 3.3191-3.5344 6.8811-10.723 18.194-18.254 21.33-14.199 0.87084 1.1261 3.0215 7.1857 4.7792 13.466 2.1692 7.7504 3.9068 11.146 5.4091 10.569 1.4425-0.55355 1.8273-2.3872 1.1049-5.2655zm-114.77 0.08129c-0.57145-0.57145-0.97791 0.44428-0.90324 2.2572 0.08251 2.0034 0.49002 2.4109 1.039 1.039 0.49678-1.2414 0.43569-2.7247-0.13576-3.2962zm26.972-9.211c2.2528-1.0265 5.4957-4.3155 7.2064-7.3089s4.9768-7.9621 7.2581-11.041c3.55-4.7919 4.651-5.3295 7.6396-3.7301 1.9205 1.0278 3.8415 1.5191 4.2688 1.0918 1.5962-1.5962-3.8685-10.851-10.1-17.105-3.547-3.5599-6.449-7.574-6.449-8.9202s-2.031-4.8614-4.5133-7.8114-4.0348-5.8423-3.45-6.4271c1.7518-1.7518 8.2476 5.0632 11.346 11.904 1.5935 3.5178 5.0086 8.0568 7.5891 10.087s5.8948 6.697 7.365 10.371c2.7123 6.7788 4.6198 8.1636 6.6715 4.8438 0.62444-1.0103 2.3155-1.3841 3.758-0.83058 2.2731 0.87226 2.2525 0.44146-0.15455-3.2321-2.5359-3.8703-2.3214-9.3871 0.37755-9.7104 0.60819-0.07285 4.5768-0.51606 8.8191-0.98493s8.6716-1.6478 9.843-2.62c3.9608-3.2872 4.2303-12.356 0.75781-25.502-1.8731-7.0916-3.8723-15.602-4.4426-18.913s-4.4761-12.949-8.6795-21.418c-7.6039-15.321-8.755-21.103-2.5784-12.951l3.2382 4.2736-1.8453-7.3089c-1.6195-6.4147-2.4332-7.3089-6.6508-7.3089-3.5519 0-6.2268-1.7945-10.254-6.879-2.9965-3.7834-6.1133-6.879-6.9262-6.879s-2.8494 2.3216-4.5256 5.1592c-3.1228 5.2865-6.8959 7.1982-5.1314 2.5999 0.8503-2.2158 0.24795-2.2598-4.4879-0.32734-4.3295 1.7666-6.8464 5.0293-12.072 15.649-7.4648 15.171-10.599 16.411-4.6915 1.8556 2.139-5.2702 3.401-10.07 2.8044-10.667-1.4458-1.4458-1.2723-1.832-7.0679 15.731-5.7055 17.29-10.664 24.551-15.5 22.695-2.9201-1.1205-2.8844-1.4309 0.58885-5.1281 2.0334-2.1644 3.6736-4.6594 3.6448-5.5443s-0.84109-0.25461-1.8052 1.4006c-2.1248 3.648-6.7412 3.9883-6.7412 0.49693 0-1.3819-1.6472-4.0472-3.6604-5.9228-2.0525-1.9122-3.2242-4.5469-2.6674-5.998 0.62471-1.628-0.27679-2.9909-2.4305-3.6744-2.4259-0.76995-3.1193-2.0453-2.3794-4.3766 0.79125-2.493 0.39208-3.0397-1.6479-2.2569-1.7547 0.67333-2.6921 0.07074-2.6921-1.7306 0-1.6171-1.4269-2.7636-3.4395-2.7636-1.9108 0-3.4395-1.1465-3.4395-2.5796 0-1.4188-0.85777-2.5796-1.9062-2.5796-1.1972 0-1.4861-1.6738-0.77675-4.5 3.9507-15.741 2.8977-17.915-4.8996-10.118-4.3961 4.3961-8.6565 5.5217-10.375 2.741-1.3423-2.1719-7.4053-0.33164-8.5255 2.5876-0.63125 1.645 0.35609 2.4101 3.1099 2.4101 8.0747 0 10.207 8.4461 2.2048 8.7344-3.1089 0.11203-2.8655 0.45321 1.3913 1.9506 2.8376 0.99819 6.0362 2.5046 7.108 3.3476 1.2401 0.97532 2.3149 0.57864 2.9556-1.0908 1.7144-4.4675 4.6562-2.9813 14.38 7.265 12.299 12.959 13.505 15.27 9.333 17.875-2.6124 1.6315-2.9935 3.0333-1.88 6.9157 1.5198 5.2994 2.308 4.8137-12.98 8.0001-8.5155 1.7749-18.748-0.56424-17.435-3.9856 0.54597-1.4228-0.49609-2.8537-2.5538-3.5068-2.1249-0.6744-3.1048-2.0709-2.5208-3.5926 0.52538-1.3691-0.13973-2.9095-1.478-3.4231s-2.3446-2.2255-2.2361-3.8043-0.37134-5.0995-1.0662-7.8237c-1.1427-4.4802-0.90768-4.8601 2.462-3.9789 3.6702 0.95978 3.6652 0.90996-0.34099-3.3689l-4.0663-4.343-1.0114 14.341c-1.0863 15.404 0.24013 22.08 4.3867 22.08 3.7777 0 10.01 10.995 14.613 25.779 6.8921 22.138 27.792 48.348 46.645 58.496 9.9768 5.3704 16.166 6.2656 22.708 3.2846zm12.229-23.571c-2.0019-1.3077-9.2846-21.68-9.2846-25.972 0-4.1364 2.5815-0.12524 5.9702 9.2766 1.7046 4.7293 4.2906 9.9713 5.7468 11.649 2.8205 3.2495 0.90395 7.2263-2.4323 5.047zm-43.281-5.8537c0.37691-1.1308 2.8758-2.6417 5.553-3.3577 5.5242-1.4774 14.685-9.5655 14.685-12.965 0-1.2418 1.1608-2.2579 2.5796-2.2579s2.5796 0.74696 2.5796 1.6599c0 2.7597-10.503 13.825-15.648 16.485-5.8454 3.0228-10.684 3.2391-9.7499 0.43584zm-1.2586-13.422c0.58457-0.94585 2.0301-1.7197 3.2123-1.7197s3.6404-1.0902 5.4627-2.4228c2.9346-2.1458 2.4316-2.2384-4.4006-0.81015-13.726 2.8694-27.845 3.4345-27.061 1.083 0.71551-2.1465 35.545-16.035 42.788-17.061 5.7004-0.80813 6.0806 4.1512 0.7285 9.5033-2.4158 2.4158-4.3924 5.0347-4.3924 5.8196 0 2.2136-9.558 7.3279-13.695 7.3279-2.0381 0-3.2273-0.77388-2.6427-1.7197zm55.318-25.223c-2.6432-2.6432-0.7474-3.6319 5.3865-2.8092 5.2844 0.70879 7.5396 0.02927 11.799-3.5552 6.7759-5.7016 8.9474-3.6848 2.8665 2.6623-3.6327 3.7917-6.1993 4.8485-11.776 4.8485-3.9218 0-7.6464-0.51592-8.2769-1.1465zm-5.8758-8.6346c0-4.9748 9.4388-18.124 18.457-25.712 5.9835-5.0348 9.1591-4.2384 4.3387 1.0881-2.0002 2.2102-2.3565 3.45-0.99144 3.45 1.1719 0-0.39934 3.289-3.4917 7.3089-9.6219 12.508-9.5743 12.431-6.7047 10.823 1.4188-0.79521 4.3178-3.0105 6.4422-4.9229s4.4456-2.8941 5.158-2.1816c2.054 2.054-9.4941 11.33-14.106 11.33-2.2939 0-4.649 0.77388-5.2336 1.7197-1.9667 3.1822-3.8694 1.7551-3.8694-2.9022zm61.25 52.345c-2.9168-7.8033-6.8524-18.681-8.7458-24.173s-3.8333-9.594-4.3109-9.1164-0.11126 3.04 0.81402 5.6943 1.0765 6.4636 0.33611 8.4652c-1.0224 2.7638 0.74203 7.2086 7.3352 18.478 4.7748 8.1615 8.9499 14.839 9.278 14.839s-1.7899-6.3845-4.7067-14.188zm-136.2-7.3176c-4.8669-6.9222-9.4722-12.201-10.234-11.73s-2.6571-0.17781-4.2116-1.4416c-2.4904-2.0246-2.6563-1.8889-1.3965 1.1418 0.78635 1.8917 1.5116 5.7611 1.6118 8.5987 0.15158 4.2952 0.97409 5.2503 4.9113 5.7034 5.8338 0.67125 6.4449 5.4749 0.69648 5.4749-6.0233 0-10.119-5.7287-11.055-15.46-0.67599-7.0352-1.4287-8.6161-4.1025-8.6161-5.327 0-5.561 4.6055-0.73519 14.469 6.402 13.085 11.788 16.192 26.069 15.036l7.2943-0.59041-8.8488-12.586zm-14.908-29.227c0-2.6752-0.97452-4.2993-2.5796-4.2993-3.0512 0-3.1769 0.82971-0.79936 5.2723 2.393 4.4714 3.379 4.1875 3.379-0.97292zm59.716-70.939c1.3717-7.2885 1.2497-9.0286-0.63297-9.0286-3.1447 0-2.9346-2.641 0.64473-8.1038 2.9676-4.5291 2.9635-4.5397-1.2898-3.4024-2.3467 0.62747-5.6275 1.1514-7.2908 1.1643-2.5819 0.02005-2.7313 0.58928-1.0213 3.8929 1.1015 2.1282 2.5421 5.031 3.2011 6.4506s0.84152 7.2238 0.40543 12.898c-0.70014 9.1103-0.49597 10.015 1.7458 7.7372 1.3962-1.4188 3.3033-6.6425 4.2378-11.608zm-71.432 0.11503c-1.2414-0.49678-2.7247-0.43569-3.2962 0.13577s0.44427 0.97791 2.2572 0.90324c2.0034-0.08252 2.4109-0.49003 1.039-1.039zm63.281-30.312c0.01448-0.76521-0.74755-0.91301-1.6934-0.32844s-1.7079 2.3715-1.6934 3.9709c0.0227 2.5061 0.25674 2.5515 1.6934 0.32844 0.91689-1.4188 1.6789-3.2057 1.6934-3.9709zm-198.63 514.69c-1.7208-2.7843-1.2483-2.9347 13.522-4.3028 12.622-1.169 13.456-1.041 12.88 1.9773-0.52306 2.7394-2.4761 3.3032-12.92 3.7296-7.6734 0.31329-12.747-0.21515-13.482-1.4042zm0.25669-6.4636c-0.45767-0.74053-0.39731-6.1418 0.13416-12.003l0.96627-10.656 9.2874-3.4749c5.1081-1.9112 10.032-3.4749 10.943-3.4749s1.6552-0.85667 1.6552-1.9037c0-1.1288-1.225-1.4098-3.0095-0.69042-1.6552 0.66732-6.1051 1.6492-9.8885 2.182-5.9877 0.84321-6.6017 0.63287-4.7392-1.6236 1.1769-1.4257 5.2397-3.9902 9.0286-5.6987s6.8888-3.7171 6.8888-4.4635c0-3.1462-3.3401-2.9931-7.5872 0.34771-6.6959 5.267-8.9333 3.3198-10.209-8.8848-1.863-17.824-1.4644-22.015 2.3185-24.377 1.8917-1.1814 3.4395-3.5096 3.4395-5.1738 0-14.482 14.519 27.401 17.731 51.146 0.12791 0.94585-0.38321 6.3889-1.1358 12.096l-1.3684 10.376-9.8307 3.812c-10.585 4.1045-13.325 4.5664-14.624 2.4655zm0.58659-89.052c-0.92245-2.4262-1.6772-5.1348-1.6772-6.0191s-0.77388-1.6078-1.7197-1.6078-1.7197 1.5021-1.7197 3.338-0.70088 3.7711-1.5575 4.3006c-0.91344 0.56454-1.1717-6.0392-0.62446-15.97 1.1054-20.062-0.84105-29.778-9.8726-49.283-6.8775-14.853-22.879-39.576-31.426-48.553-2.913-3.0599-4.6917-6.1554-3.9527-6.879 1.7418-1.7053 12.988 10.963 21.585 24.314 3.7133 5.7668 7.428 11.272 8.2547 12.234 3.9085 4.5473 15.693 31.999 17.508 40.785 1.1202 5.4222 2.7299 10.287 3.5771 10.811 3.6519 2.257 10.526 32.555 7.967 35.114-2.8637 2.8637-4.5287 2.1855-6.3418-2.5834zm549.93-110.28c-1.6552-0.43255-3.0095-1.555-3.0095-2.4943 0-2.4454 9.0533-1.046 9.8992 1.5301 0.70767 2.1551-1.2721 2.4322-6.8896 0.96421zm-608.2-23.491c-10.417-16.855-16.761-40.605-15.228-57.011 1.5743-16.853 12.795-46.822 18.206-48.625 3.1507-1.0502 2.3957 2.5254-2.0134 9.5355-2.2191 3.5282-5.8052 12.152-7.969 19.164-3.4205 11.084-3.8175 15.214-3.0397 31.624 0.85815 18.105 1.2004 19.472 8.399 33.536 9.2143 18.003 9.03 17.536 6.9281 17.536-0.94753 0-3.3246-2.5918-5.2824-5.7595zm13.597-3.7844c0-3.2996 5.1137-13.431 6.2205-12.325 1.1662 1.1662-3.3705 14.99-4.9195 14.99-0.71557 0-1.301-1.1993-1.301-2.665zm614.88-0.65563c-0.5442-0.88051-0.20291-2.087 0.75837-2.6811 3.0094-1.8599 1.9072-7.4738-1.6917-8.616-1.8917-0.60042-3.4395-1.8134-3.4395-2.6955 0-3.2829 4.7894-1.4228 11.322 4.3971 6.5124 5.8021 6.6249 6.087 3.3973 8.5987-3.7528 2.9204-8.8537 3.4118-10.346 0.99687zm-589.56-4.9654c-5.6765-2.32-13.27-16.022-13.278-23.959-0.00404-4.0199 0.76652-7.3089 1.7124-7.3089s1.7226 2.902 1.7262 6.449c0.01247 12.511 10.914 24.128 20.789 22.153 3.7851-0.75701 5.0791-0.45195 4.5763 1.0789-0.79745 2.4277-10.934 3.4639-15.526 1.5871zm2.2509-18.299c-1.2731-1.5341-1.636-4.5415-0.9338-7.7388 1.048-4.7716 0.76012-5.2296-3.2873-5.2296-7.5814 0-4.8749-3.0603 4.4811-5.0668 7.289-1.5632 9.3622-1.4673 11.355 0.52559 2.6031 2.6032 1.4422 9.7004-1.5868 9.7004-0.94586 0-1.2492-1.4826-0.67402-3.2947 1.8234-5.745-2.2667-5.6494-5.2516 0.1227-2.213 4.2794-2.4252 6.2424-0.93312 8.6316 1.0622 1.7008 1.9313 3.4899 1.9313 3.9757 0 1.7903-3.0804 0.80836-5.1008-1.626zm24.018-12.376c0-2.1217 8.9443-12.858 9.9086-11.894 1.5241 1.5242-5.2923 13.021-7.72 13.021-1.2037 0-2.1885-0.50735-2.1885-1.1275zm59.761-2.9487c-4.4053-3.399-3.734-5.2597 3.0679-8.5033 7.6263-3.6367 10.567-3.7962 7.7656-0.42106-1.1307 1.3624-1.8059 4.2644-1.5004 6.449 0.66249 4.7378-4.594 6.1319-9.3331 2.4754zm5.5891-4.624c0-1.0017-0.77388-1.3429-1.7197-0.75837s-1.7197 1.4041-1.7197 1.8212 0.77388 0.75837 1.7197 0.75837 1.7197-0.81956 1.7197-1.8212zm-76.528 0.1015c-3.4252-3.7849-14.177-4.7168-19.786-1.7151-2.0236 1.083-3.5986 1.1151-4.2345 0.08629-1.6709-2.7035 5.1921-5.2502 14.149-5.2502 6.5694 0 9.231 0.87186 12.151 3.9802 2.0566 2.1891 3.7392 4.5108 3.7392 5.1592 0 2.256-2.9262 1.1571-6.0191-2.2605zm12.814-6.449c3.5146-6.0198 10.278-13.165 11.4-12.044 0.63248 0.63248-0.88104 3.5637-3.3634 6.5138s-4.5133 6.0783-4.5133 6.9516-1.188 1.5878-2.6401 1.5878c-2.0373 0-2.2389-0.68721-0.88305-3.0095zm-5.0755-13.82c0-1.9399 1.2677-2.526 17.929-8.2876 13.634-4.7149 13.027-4.5927 13.027-2.6218 0 0.8232-5.8445 3.5716-12.988 6.1075s-14.108 5.0407-15.478 5.5662-2.4898 0.18157-2.4898-0.76429zm0-7.0859c0-0.85731-1.4084-1.1904-3.1297-0.74031s-4.1002-0.35102-5.2864-1.7803c-1.8641-2.246 0.10926-3.3071 14.538-7.8174 9.1824-2.8703 17.273-4.8616 17.979-4.4252s1.6413 2.6631 2.0781 4.9482c0.73294 3.834-0.14708 4.4337-11.403 7.7697-13.772 4.0819-14.777 4.2209-14.777 2.0454zm-3.9505-27.797c2.1353-2.0472 30.17-2.7193 30.848-0.73954 0.36307 1.0601-5.7032 1.7838-15.815 1.8868-9.0222 0.09189-15.787-0.4244-15.033-1.1473z"/>
 </g>
</svg>
